Khula-Bold.ufo
<glyph name="exclam" format="1">
  <advance width="595"/>
  <unicode hex="0021"/>
  <outline>
    <contour>
      <point x="429" y="436" type="line"/>
      <point x="210" y="436" type="line"/>
      <point x="164" y="1316" type="line"/>
      <point x="475" y="1316" type="line"/>
    </contour>
    <contour>
      <point x="160" y="129" type="curve" smooth="yes"/>
      <point x="160" y="229"/>
      <point x="215" y="282"/>
      <point x="319" y="282" type="curve" smooth="yes"/>
      <point x="418" y="282"/>
      <point x="475" y="226"/>
      <point x="475" y="129" type="curve" smooth="yes"/>
      <point x="475" y="34"/>
      <point x="416" y="-24"/>
      <point x="319" y="-24" type="curve" smooth="yes"/>
      <point x="218" y="-24"/>
      <point x="160" y="32"/>
    </contour>
  </outline>
</glyph>
<glyph name="quotedbl.deva" format="1">
  <advance width="1171"/>
  <unicode hex="0022"/>
  <outline>
    <contour>
      <point x="521" y="1316" type="line"/>
      <point x="484" y="841" type="line"/>
      <point x="307" y="841" type="line"/>
      <point x="270" y="1316" type="line"/>
    </contour>
    <contour>
      <point x="901" y="1316" type="line"/>
      <point x="864" y="841" type="line"/>
      <point x="686" y="841" type="line"/>
      <point x="649" y="1316" type="line"/>
    </contour>
  </outline>
</glyph>
<glyph name="quotedbl" format="1">
  <advance width="1031"/>
  <unicode hex="0022"/>
  <outline>
    <contour>
      <point x="451" y="1316" type="line"/>
      <point x="414" y="841" type="line"/>
      <point x="237" y="841" type="line"/>
      <point x="200" y="1316" type="line"/>
    </contour>
    <contour>
      <point x="831" y="1316" type="line"/>
      <point x="794" y="841" type="line"/>
      <point x="616" y="841" type="line"/>
      <point x="579" y="1316" type="line"/>
    </contour>
  </outline>
</glyph>
<glyph name="numbersign" format="1">
  <advance width="1191"/>
  <unicode hex="0023"/>
  <outline>
    <contour>
      <point x="899" y="760" type="line"/>
      <point x="857" y="551" type="line"/>
      <point x="1089" y="551" type="line"/>
      <point x="1089" y="365" type="line"/>
      <point x="822" y="365" type="line"/>
      <point x="752" y="0" type="line"/>
      <point x="554" y="0" type="line"/>
      <point x="625" y="365" type="line"/>
      <point x="450" y="365" type="line"/>
      <point x="382" y="0" type="line"/>
      <point x="188" y="0" type="line"/>
      <point x="255" y="365" type="line"/>
      <point x="40" y="365" type="line"/>
      <point x="40" y="551" type="line"/>
      <point x="290" y="551" type="line"/>
      <point x="332" y="760" type="line"/>
      <point x="105" y="760" type="line"/>
      <point x="105" y="948" type="line"/>
      <point x="365" y="948" type="line"/>
      <point x="435" y="1314" type="line"/>
      <point x="632" y="1314" type="line"/>
      <point x="562" y="948" type="line"/>
      <point x="741" y="948" type="line"/>
      <point x="811" y="1314" type="line"/>
      <point x="1004" y="1314" type="line"/>
      <point x="934" y="948" type="line"/>
      <point x="1150" y="948" type="line"/>
      <point x="1150" y="760" type="line"/>
    </contour>
    <contour>
      <point x="485" y="551" type="line"/>
      <point x="661" y="551" type="line"/>
      <point x="704" y="760" type="line"/>
      <point x="527" y="760" type="line"/>
    </contour>
  </outline>
</glyph>
<glyph name="dollar" format="1">
  <advance width="1052"/>
  <unicode hex="0024"/>
  <outline>
    <contour>
      <point x="983" y="411" type="curve" smooth="yes"/>
      <point x="983" y="220"/>
      <point x="838" y="100"/>
      <point x="589" y="77" type="curve"/>
      <point x="589" y="-107" type="line"/>
      <point x="466" y="-107" type="line"/>
      <point x="466" y="74" type="line"/>
      <point x="320" y="77"/>
      <point x="192" y="102"/>
      <point x="81" y="151" type="curve"/>
      <point x="81" y="389" type="line"/>
      <point x="133" y="363"/>
      <point x="196" y="340"/>
      <point x="269" y="320" type="curve"/>
      <point x="343" y="301"/>
      <point x="409" y="289"/>
      <point x="466" y="285" type="curve"/>
      <point x="466" y="564" type="line"/>
      <point x="406" y="588" type="line" smooth="yes"/>
      <point x="287" y="635"/>
      <point x="203" y="685"/>
      <point x="153" y="740" type="curve" smooth="yes"/>
      <point x="104" y="795"/>
      <point x="79" y="863"/>
      <point x="79" y="944" type="curve" smooth="yes"/>
      <point x="79" y="1031"/>
      <point x="113" y="1103"/>
      <point x="181" y="1159" type="curve" smooth="yes"/>
      <point x="249" y="1215"/>
      <point x="344" y="1249"/>
      <point x="466" y="1261" type="curve"/>
      <point x="466" y="1399" type="line"/>
      <point x="589" y="1399" type="line"/>
      <point x="589" y="1264" type="line"/>
      <point x="727" y="1258"/>
      <point x="851" y="1231"/>
      <point x="962" y="1182" type="curve"/>
      <point x="877" y="971" type="line"/>
      <point x="784" y="1010"/>
      <point x="688" y="1033"/>
      <point x="589" y="1041" type="curve"/>
      <point x="589" y="776" type="line"/>
      <point x="706" y="731"/>
      <point x="790" y="691"/>
      <point x="839" y="658" type="curve" smooth="yes"/>
      <point x="938" y="593"/>
      <point x="983" y="516"/>
    </contour>
    <contour>
      <point x="712" y="398" type="curve" smooth="yes"/>
      <point x="712" y="449"/>
      <point x="672" y="479"/>
      <point x="589" y="516" type="curve"/>
      <point x="589" y="292" type="line"/>
      <point x="671" y="305"/>
      <point x="712" y="341"/>
    </contour>
    <contour>
      <point x="350" y="944" type="curve" smooth="yes"/>
      <point x="350" y="891"/>
      <point x="385" y="862"/>
      <point x="466" y="826" type="curve"/>
      <point x="466" y="1038" type="line"/>
      <point x="389" y="1027"/>
      <point x="350" y="995"/>
    </contour>
  </outline>
</glyph>
<glyph name="quotesingle" format="1">
  <advance width="651"/>
  <unicode hex="0027"/>
  <outline>
    <contour>
      <point x="451" y="1316" type="line"/>
      <point x="414" y="841" type="line"/>
      <point x="237" y="841" type="line"/>
      <point x="200" y="1316" type="line"/>
    </contour>
  </outline>
</glyph>
<glyph name="parenleft" format="1">
  <advance width="700"/>
  <unicode hex="0028"/>
  <outline>
    <contour>
      <point x="84" y="595" type="curve" smooth="yes"/>
      <point x="84" y="912"/>
      <point x="179" y="1197"/>
      <point x="355" y="1406" type="curve"/>
      <point x="580" y="1406" type="line"/>
      <point x="411" y="1174"/>
      <point x="323" y="889"/>
      <point x="323" y="597" type="curve" smooth="yes"/>
      <point x="323" y="302"/>
      <point x="414" y="21"/>
      <point x="578" y="-202" type="curve"/>
      <point x="355" y="-202" type="line"/>
      <point x="178" y="2"/>
      <point x="84" y="282"/>
    </contour>
  </outline>
</glyph>
<glyph name="parenright" format="1">
  <advance width="700"/>
  <unicode hex="0029"/>
  <outline>
    <contour>
      <point x="616" y="595" type="curve" smooth="yes"/>
      <point x="616" y="279"/>
      <point x="520" y="1"/>
      <point x="345" y="-202" type="curve"/>
      <point x="122" y="-202" type="line"/>
      <point x="203" y="-91"/>
      <point x="265" y="32"/>
      <point x="309" y="169" type="curve" smooth="yes"/>
      <point x="354" y="306"/>
      <point x="376" y="449"/>
      <point x="376" y="597" type="curve" smooth="yes"/>
      <point x="376" y="889"/>
      <point x="289" y="1174"/>
      <point x="120" y="1406" type="curve"/>
      <point x="345" y="1406" type="line"/>
      <point x="521" y="1195"/>
      <point x="616" y="911"/>
    </contour>
  </outline>
</glyph>
<glyph name="asterisk" format="1">
  <advance width="1004"/>
  <unicode hex="002A"/>
  <outline>
    <contour>
      <point x="619" y="1400" type="line"/>
      <point x="582" y="1069" type="line"/>
      <point x="918" y="1163" type="line"/>
      <point x="948" y="936" type="line"/>
      <point x="642" y="914" type="line"/>
      <point x="842" y="647" type="line"/>
      <point x="638" y="538" type="line"/>
      <point x="498" y="820" type="line"/>
      <point x="374" y="540" type="line"/>
      <point x="162" y="647" type="line"/>
      <point x="361" y="914" type="line"/>
      <point x="57" y="938" type="line"/>
      <point x="92" y="1163" type="line"/>
      <point x="420" y="1069" type="line"/>
      <point x="383" y="1400" type="line"/>
    </contour>
  </outline>
</glyph>
<glyph name="comma" format="1">
  <advance width="535"/>
  <unicode hex="002C"/>
  <outline>
    <contour>
      <point x="413" y="193" type="line"/>
      <point x="382" y="72"/>
      <point x="329" y="-71"/>
      <point x="255" y="-238" type="curve"/>
      <point x="57" y="-238" type="line"/>
      <point x="96" y="-78"/>
      <point x="126" y="73"/>
      <point x="148" y="214" type="curve"/>
      <point x="400" y="214" type="line"/>
    </contour>
  </outline>
</glyph>
<glyph name="hyphen" format="1">
  <advance width="673"/>
  <unicode hex="002D"/>
  <outline>
    <contour>
      <point x="95" y="472" type="line"/>
      <point x="95" y="697" type="line"/>
      <point x="578" y="697" type="line"/>
      <point x="578" y="472" type="line"/>
    </contour>
  </outline>
</glyph>
<glyph name="one.deva" format="1">
  <advance width="1052"/>
  <unicode hex="0031"/>
  <outline>
    <contour>
      <point x="761" y="0" type="line"/>
      <point x="483" y="0" type="line"/>
      <point x="483" y="761" type="line"/>
      <point x="486" y="886" type="line"/>
      <point x="490" y="1023" type="line"/>
      <point x="444" y="977"/>
      <point x="412" y="947"/>
      <point x="394" y="932" type="curve" smooth="yes"/>
      <point x="243" y="811" type="line"/>
      <point x="109" y="978" type="line"/>
      <point x="533" y="1316" type="line"/>
      <point x="761" y="1316" type="line"/>
    </contour>
  </outline>
</glyph>
<glyph name="three.deva" format="1">
  <advance width="1052"/>
  <unicode hex="0033"/>
  <outline>
    <contour>
      <point x="942" y="1021" type="curve" smooth="yes"/>
      <point x="942" y="857"/>
      <point x="838" y="736"/>
      <point x="658" y="693" type="curve"/>
      <point x="658" y="688" type="line"/>
      <point x="870" y="661"/>
      <point x="981" y="558"/>
      <point x="981" y="383" type="curve" smooth="yes"/>
      <point x="981" y="256"/>
      <point x="935" y="158"/>
      <point x="843" y="87" type="curve" smooth="yes"/>
      <point x="752" y="17"/>
      <point x="621" y="-18"/>
      <point x="450" y="-18" type="curve" smooth="yes"/>
      <point x="307" y="-18"/>
      <point x="181" y="6"/>
      <point x="70" y="53" type="curve"/>
      <point x="70" y="290" type="line"/>
      <point x="173" y="238"/>
      <point x="300" y="202"/>
      <point x="420" y="202" type="curve" smooth="yes"/>
      <point x="604" y="202"/>
      <point x="689" y="261"/>
      <point x="689" y="400" type="curve" smooth="yes"/>
      <point x="689" y="523"/>
      <point x="593" y="570"/>
      <point x="373" y="570" type="curve" smooth="yes"/>
      <point x="273" y="570" type="line"/>
      <point x="273" y="783" type="line"/>
      <point x="374" y="783" type="line" smooth="yes"/>
      <point x="578" y="783"/>
      <point x="669" y="831"/>
      <point x="669" y="960" type="curve" smooth="yes"/>
      <point x="669" y="1060"/>
      <point x="606" y="1110"/>
      <point x="481" y="1110" type="curve" smooth="yes"/>
      <point x="396" y="1110"/>
      <point x="310" y="1084"/>
      <point x="201" y="1013" type="curve"/>
      <point x="72" y="1205" type="line"/>
      <point x="192" y="1292"/>
      <point x="335" y="1335"/>
      <point x="501" y="1335" type="curve" smooth="yes"/>
      <point x="638" y="1335"/>
      <point x="745" y="1307"/>
      <point x="824" y="1252" type="curve" smooth="yes"/>
      <point x="903" y="1197"/>
      <point x="942" y="1120"/>
    </contour>
  </outline>
</glyph>
<glyph name="seven" format="1">
  <advance width="1052"/>
  <unicode hex="0037"/>
  <outline>
    <contour>
      <point x="204" y="0" type="line"/>
      <point x="698" y="1080" type="line"/>
      <point x="49" y="1080" type="line"/>
      <point x="49" y="1314" type="line"/>
      <point x="994" y="1314" type="line"/>
      <point x="994" y="1139" type="line"/>
      <point x="496" y="0" type="line"/>
    </contour>
  </outline>
</glyph>
<glyph name="nine.deva" format="1">
  <advance width="1052"/>
  <unicode hex="0039"/>
  <outline>
    <contour>
      <point x="988" y="754" type="curve"/>
      <point x="988" y="235"/>
      <point x="772" y="-18"/>
      <point x="328" y="-18" type="curve" smooth="yes"/>
      <point x="250" y="-18"/>
      <point x="191" y="-14"/>
      <point x="151" y="-5" type="curve"/>
      <point x="151" y="218" type="line"/>
      <point x="202" y="205"/>
      <point x="255" y="199"/>
      <point x="310" y="199" type="curve"/>
      <point x="588" y="205"/>
      <point x="714" y="303"/>
      <point x="732" y="610" type="curve"/>
      <point x="721" y="610" type="line"/>
      <point x="652" y="498"/>
      <point x="566" y="457"/>
      <point x="429" y="457" type="curve" smooth="yes"/>
      <point x="314" y="457"/>
      <point x="224" y="494"/>
      <point x="158" y="567" type="curve" smooth="yes"/>
      <point x="92" y="641"/>
      <point x="59" y="743"/>
      <point x="59" y="874" type="curve" smooth="yes"/>
      <point x="59" y="1015"/>
      <point x="99" y="1126"/>
      <point x="179" y="1208" type="curve" smooth="yes"/>
      <point x="260" y="1290"/>
      <point x="369" y="1331"/>
      <point x="507" y="1331" type="curve"/>
      <point x="797" y="1334"/>
      <point x="992" y="1114"/>
    </contour>
    <contour>
      <point x="512" y="1108" type="curve" smooth="yes"/>
      <point x="397" y="1108"/>
      <point x="328" y="1026"/>
      <point x="328" y="877" type="curve" smooth="yes"/>
      <point x="328" y="750"/>
      <point x="387" y="670"/>
      <point x="507" y="670" type="curve" smooth="yes"/>
      <point x="563" y="670"/>
      <point x="611" y="688"/>
      <point x="651" y="725" type="curve" smooth="yes"/>
      <point x="692" y="762"/>
      <point x="712" y="805"/>
      <point x="712" y="853" type="curve" smooth="yes"/>
      <point x="712" y="924"/>
      <point x="693" y="985"/>
      <point x="655" y="1034" type="curve" smooth="yes"/>
      <point x="618" y="1083"/>
      <point x="570" y="1108"/>
    </contour>
  </outline>
</glyph>
<glyph name="colon.deva" format="1">
  <advance width="755"/>
  <unicode hex="003A"/>
  <outline>
    <contour>
      <point x="220" y="129" type="curve" smooth="yes"/>
      <point x="220" y="229"/>
      <point x="275" y="282"/>
      <point x="379" y="282" type="curve" smooth="yes"/>
      <point x="478" y="282"/>
      <point x="535" y="226"/>
      <point x="535" y="129" type="curve" smooth="yes"/>
      <point x="535" y="34"/>
      <point x="476" y="-24"/>
      <point x="379" y="-24" type="curve" smooth="yes"/>
      <point x="278" y="-24"/>
      <point x="220" y="32"/>
    </contour>
    <contour>
      <point x="220" y="872" type="curve" smooth="yes"/>
      <point x="220" y="973"/>
      <point x="275" y="1025"/>
      <point x="379" y="1025" type="curve" smooth="yes"/>
      <point x="478" y="1025"/>
      <point x="535" y="971"/>
      <point x="535" y="872" type="curve" smooth="yes"/>
      <point x="535" y="775"/>
      <point x="476" y="719"/>
      <point x="379" y="719" type="curve" smooth="yes"/>
      <point x="278" y="719"/>
      <point x="220" y="773"/>
    </contour>
  </outline>
</glyph>
<glyph name="equal.deva" format="1">
  <advance width="1052"/>
  <unicode hex="003D"/>
  <outline>
    <contour>
      <point x="79" y="724" type="line"/>
      <point x="79" y="922" type="line"/>
      <point x="973" y="922" type="line"/>
      <point x="973" y="724" type="line"/>
    </contour>
    <contour>
      <point x="79" y="376" type="line"/>
      <point x="79" y="573" type="line"/>
      <point x="973" y="573" type="line"/>
      <point x="973" y="376" type="line"/>
    </contour>
  </outline>
</glyph>
<glyph name="equal" format="1">
  <advance width="1052"/>
  <unicode hex="003D"/>
  <outline>
    <contour>
      <point x="79" y="724" type="line"/>
      <point x="79" y="922" type="line"/>
      <point x="973" y="922" type="line"/>
      <point x="973" y="724" type="line"/>
    </contour>
    <contour>
      <point x="79" y="376" type="line"/>
      <point x="79" y="573" type="line"/>
      <point x="973" y="573" type="line"/>
      <point x="973" y="376" type="line"/>
    </contour>
  </outline>
</glyph>
<glyph name="question.deva" format="1">
  <advance width="1260"/>
  <unicode hex="003F"/>
  <outline>
    <contour>
      <point x="473" y="436" type="line"/>
      <point x="473" y="503" type="line" smooth="yes"/>
      <point x="473" y="560"/>
      <point x="485" y="610"/>
      <point x="510" y="653" type="curve" smooth="yes"/>
      <point x="535" y="696"/>
      <point x="580" y="741"/>
      <point x="645" y="789" type="curve" smooth="yes"/>
      <point x="708" y="834"/>
      <point x="750" y="871"/>
      <point x="770" y="899" type="curve" smooth="yes"/>
      <point x="790" y="927"/>
      <point x="800" y="959"/>
      <point x="800" y="994" type="curve" smooth="yes"/>
      <point x="800" y="1071"/>
      <point x="740" y="1113"/>
      <point x="636" y="1113" type="curve" smooth="yes"/>
      <point x="546" y="1113"/>
      <point x="443" y="1084"/>
      <point x="328" y="1025" type="curve"/>
      <point x="230" y="1222" type="line"/>
      <point x="364" y="1297"/>
      <point x="506" y="1335"/>
      <point x="656" y="1335" type="curve" smooth="yes"/>
      <point x="779" y="1335"/>
      <point x="877" y="1305"/>
      <point x="950" y="1245" type="curve" smooth="yes"/>
      <point x="1023" y="1186"/>
      <point x="1060" y="1107"/>
      <point x="1060" y="1008" type="curve" smooth="yes"/>
      <point x="1060" y="942"/>
      <point x="1045" y="885"/>
      <point x="1015" y="837" type="curve" smooth="yes"/>
      <point x="985" y="789"/>
      <point x="928" y="735"/>
      <point x="844" y="675" type="curve"/>
      <point x="787" y="632"/>
      <point x="750" y="600"/>
      <point x="735" y="577" type="curve" smooth="yes"/>
      <point x="720" y="555"/>
      <point x="712" y="526"/>
      <point x="712" y="490" type="curve" smooth="yes"/>
      <point x="712" y="436" type="line"/>
    </contour>
    <contour>
      <point x="445" y="129" type="curve" smooth="yes"/>
      <point x="445" y="229"/>
      <point x="500" y="282"/>
      <point x="603" y="282" type="curve" smooth="yes"/>
      <point x="703" y="282"/>
      <point x="760" y="226"/>
      <point x="760" y="129" type="curve" smooth="yes"/>
      <point x="760" y="34"/>
      <point x="702" y="-24"/>
      <point x="603" y="-24" type="curve" smooth="yes"/>
      <point x="502" y="-24"/>
      <point x="445" y="32"/>
    </contour>
  </outline>
</glyph>
<glyph name="question" format="1">
  <advance width="1060"/>
  <unicode hex="003F"/>
  <outline>
    <contour>
      <point x="373" y="436" type="line"/>
      <point x="373" y="503" type="line" smooth="yes"/>
      <point x="373" y="560"/>
      <point x="385" y="610"/>
      <point x="410" y="653" type="curve" smooth="yes"/>
      <point x="435" y="696"/>
      <point x="480" y="741"/>
      <point x="545" y="789" type="curve" smooth="yes"/>
      <point x="608" y="834"/>
      <point x="650" y="871"/>
      <point x="670" y="899" type="curve" smooth="yes"/>
      <point x="690" y="927"/>
      <point x="700" y="959"/>
      <point x="700" y="994" type="curve" smooth="yes"/>
      <point x="700" y="1071"/>
      <point x="640" y="1113"/>
      <point x="536" y="1113" type="curve" smooth="yes"/>
      <point x="446" y="1113"/>
      <point x="343" y="1084"/>
      <point x="228" y="1025" type="curve"/>
      <point x="130" y="1222" type="line"/>
      <point x="264" y="1297"/>
      <point x="406" y="1335"/>
      <point x="556" y="1335" type="curve" smooth="yes"/>
      <point x="679" y="1335"/>
      <point x="777" y="1305"/>
      <point x="850" y="1245" type="curve" smooth="yes"/>
      <point x="923" y="1186"/>
      <point x="960" y="1107"/>
      <point x="960" y="1008" type="curve" smooth="yes"/>
      <point x="960" y="942"/>
      <point x="945" y="885"/>
      <point x="915" y="837" type="curve" smooth="yes"/>
      <point x="885" y="789"/>
      <point x="828" y="735"/>
      <point x="744" y="675" type="curve"/>
      <point x="687" y="632"/>
      <point x="650" y="600"/>
      <point x="635" y="577" type="curve" smooth="yes"/>
      <point x="620" y="555"/>
      <point x="612" y="526"/>
      <point x="612" y="490" type="curve" smooth="yes"/>
      <point x="612" y="436" type="line"/>
    </contour>
    <contour>
      <point x="345" y="129" type="curve" smooth="yes"/>
      <point x="345" y="229"/>
      <point x="400" y="282"/>
      <point x="503" y="282" type="curve" smooth="yes"/>
      <point x="603" y="282"/>
      <point x="660" y="226"/>
      <point x="660" y="129" type="curve" smooth="yes"/>
      <point x="660" y="34"/>
      <point x="602" y="-24"/>
      <point x="503" y="-24" type="curve" smooth="yes"/>
      <point x="402" y="-24"/>
      <point x="345" y="32"/>
    </contour>
  </outline>
</glyph>
<glyph name="B" format="1">
  <advance width="1238"/>
  <unicode hex="0042"/>
  <outline>
    <contour>
      <point x="166" y="1316" type="line"/>
      <point x="575" y="1316" type="line" smooth="yes"/>
      <point x="762" y="1316"/>
      <point x="897" y="1289"/>
      <point x="981" y="1236" type="curve" smooth="yes"/>
      <point x="1066" y="1183"/>
      <point x="1108" y="1098"/>
      <point x="1108" y="983" type="curve" smooth="yes"/>
      <point x="1108" y="826"/>
      <point x="1028" y="719"/>
      <point x="905" y="698" type="curve"/>
      <point x="905" y="689" type="line"/>
      <point x="1072" y="652"/>
      <point x="1141" y="550"/>
      <point x="1141" y="382" type="curve" smooth="yes"/>
      <point x="1141" y="262"/>
      <point x="1098" y="168"/>
      <point x="1011" y="101" type="curve" smooth="yes"/>
      <point x="924" y="34"/>
      <point x="807" y="0"/>
      <point x="658" y="0" type="curve" smooth="yes"/>
      <point x="166" y="0" type="line"/>
    </contour>
    <contour>
      <point x="445" y="795" type="line"/>
      <point x="607" y="795" type="line" smooth="yes"/>
      <point x="758" y="795"/>
      <point x="822" y="838"/>
      <point x="822" y="946" type="curve" smooth="yes"/>
      <point x="822" y="1046"/>
      <point x="751" y="1087"/>
      <point x="591" y="1087" type="curve" smooth="yes"/>
      <point x="445" y="1087" type="line"/>
    </contour>
    <contour>
      <point x="445" y="573" type="line"/>
      <point x="445" y="230" type="line"/>
      <point x="626" y="230" type="line" smooth="yes"/>
      <point x="781" y="230"/>
      <point x="851" y="289"/>
      <point x="851" y="409" type="curve" smooth="yes"/>
      <point x="851" y="518"/>
      <point x="773" y="573"/>
      <point x="617" y="573" type="curve" smooth="yes"/>
    </contour>
  </outline>
</glyph>
<glyph name="E" format="1">
  <advance width="1032"/>
  <unicode hex="0045"/>
  <outline>
    <contour>
      <point x="923" y="0" type="line"/>
      <point x="166" y="0" type="line"/>
      <point x="166" y="1316" type="line"/>
      <point x="923" y="1316" type="line"/>
      <point x="923" y="1087" type="line"/>
      <point x="445" y="1087" type="line"/>
      <point x="445" y="798" type="line"/>
      <point x="890" y="798" type="line"/>
      <point x="890" y="570" type="line"/>
      <point x="445" y="570" type="line"/>
      <point x="445" y="230" type="line"/>
      <point x="923" y="230" type="line"/>
    </contour>
  </outline>
</glyph>
<glyph name="I" format="1">
  <advance width="610"/>
  <unicode hex="0049"/>
  <outline>
    <contour>
      <point x="166" y="0" type="line"/>
      <point x="166" y="1316" type="line"/>
      <point x="445" y="1316" type="line"/>
      <point x="445" y="0" type="line"/>
    </contour>
  </outline>
</glyph>
<glyph name="J" format="1">
  <advance width="610"/>
  <unicode hex="004A"/>
  <outline>
    <contour>
      <point x="28" y="-387" type="curve" smooth="yes"/>
      <point x="-35" y="-387"/>
      <point x="-90" y="-380"/>
      <point x="-137" y="-367" type="curve"/>
      <point x="-137" y="-135" type="line"/>
      <point x="-89" y="-147"/>
      <point x="-45" y="-153"/>
      <point x="-5" y="-153" type="curve" smooth="yes"/>
      <point x="116" y="-153"/>
      <point x="166" y="-80"/>
      <point x="166" y="83" type="curve" smooth="yes"/>
      <point x="166" y="1316" type="line"/>
      <point x="445" y="1316" type="line"/>
      <point x="445" y="85" type="line" smooth="yes"/>
      <point x="445" y="-223"/>
      <point x="303" y="-387"/>
    </contour>
  </outline>
</glyph>
<glyph name="N" format="1">
  <advance width="1498"/>
  <unicode hex="004E"/>
  <outline>
    <contour>
      <point x="1333" y="0" type="line"/>
      <point x="978" y="0" type="line"/>
      <point x="406" y="995" type="line"/>
      <point x="398" y="995" type="line"/>
      <point x="409" y="820"/>
      <point x="415" y="694"/>
      <point x="415" y="619" type="curve" smooth="yes"/>
      <point x="415" y="0" type="line"/>
      <point x="166" y="0" type="line"/>
      <point x="166" y="1316" type="line"/>
      <point x="517" y="1316" type="line"/>
      <point x="1089" y="330" type="line"/>
      <point x="1095" y="330" type="line"/>
      <point x="1086" y="501"/>
      <point x="1082" y="622"/>
      <point x="1082" y="693" type="curve" smooth="yes"/>
      <point x="1082" y="1316" type="line"/>
      <point x="1333" y="1316" type="line"/>
    </contour>
  </outline>
</glyph>
<glyph name="bracketleft" format="1">
  <advance width="610"/>
  <unicode hex="005B"/>
  <outline>
    <contour>
      <point x="564" y="-202" type="line"/>
      <point x="129" y="-202" type="line"/>
      <point x="129" y="1406" type="line"/>
      <point x="564" y="1406" type="line"/>
      <point x="564" y="1216" type="line"/>
      <point x="363" y="1216" type="line"/>
      <point x="363" y="-12" type="line"/>
      <point x="564" y="-12" type="line"/>
    </contour>
  </outline>
</glyph>
<glyph name="bracketright" format="1">
  <advance width="610"/>
  <unicode hex="005D"/>
  <outline>
    <contour>
      <point x="46" y="-12" type="line"/>
      <point x="247" y="-12" type="line"/>
      <point x="247" y="1216" type="line"/>
      <point x="46" y="1216" type="line"/>
      <point x="46" y="1406" type="line"/>
      <point x="481" y="1406" type="line"/>
      <point x="481" y="-202" type="line"/>
      <point x="46" y="-202" type="line"/>
    </contour>
  </outline>
</glyph>
<glyph name="asciicircum" format="1">
  <advance width="981"/>
  <unicode hex="005E"/>
  <outline>
    <contour>
      <point x="7" y="468" type="line"/>
      <point x="401" y="1323" type="line"/>
      <point x="531" y="1323" type="line"/>
      <point x="976" y="468" type="line"/>
      <point x="761" y="468" type="line"/>
      <point x="472" y="1047" type="line"/>
      <point x="220" y="468" type="line"/>
    </contour>
  </outline>
</glyph>
<glyph name="underscore.deva" format="1">
  <advance width="758"/>
  <unicode hex="005F"/>
  <outline>
    <contour>
      <point x="761" y="-292" type="line"/>
      <point x="-4" y="-292" type="line"/>
      <point x="-4" y="-166" type="line"/>
      <point x="761" y="-166" type="line"/>
    </contour>
  </outline>
</glyph>
<glyph name="w" format="1">
  <advance width="1578"/>
  <unicode hex="0077"/>
  <outline>
    <contour>
      <point x="971" y="0" type="line"/>
      <point x="894" y="352" type="line"/>
      <point x="789" y="796" type="line"/>
      <point x="783" y="796" type="line"/>
      <point x="599" y="0" type="line"/>
      <point x="304" y="0" type="line"/>
      <point x="18" y="1006" type="line"/>
      <point x="292" y="1006" type="line"/>
      <point x="408" y="561" type="line"/>
      <point x="427" y="481"/>
      <point x="445" y="371"/>
      <point x="464" y="230" type="curve"/>
      <point x="470" y="230" type="line"/>
      <point x="472" y="276"/>
      <point x="482" y="348"/>
      <point x="501" y="447" type="curve" smooth="yes"/>
      <point x="516" y="524" type="line"/>
      <point x="640" y="1006" type="line"/>
      <point x="942" y="1006" type="line"/>
      <point x="1060" y="524" type="line"/>
      <point x="1071" y="471"/>
      <point x="1103" y="299"/>
      <point x="1106" y="230" type="curve"/>
      <point x="1111" y="230" type="line"/>
      <point x="1117" y="273"/>
      <point x="1127" y="333"/>
      <point x="1140" y="408" type="curve" smooth="yes"/>
      <point x="1154" y="483"/>
      <point x="1164" y="534"/>
      <point x="1170" y="561" type="curve"/>
      <point x="1291" y="1006" type="line"/>
      <point x="1560" y="1006" type="line"/>
      <point x="1270" y="0" type="line"/>
    </contour>
  </outline>
</glyph>
<glyph name="braceleft" format="1">
  <advance width="804"/>
  <unicode hex="007B"/>
  <outline>
    <contour>
      <point x="310" y="333" type="line" smooth="yes"/>
      <point x="310" y="437"/>
      <point x="229" y="494"/>
      <point x="80" y="494" type="curve"/>
      <point x="80" y="709" type="line"/>
      <point x="231" y="709"/>
      <point x="310" y="763"/>
      <point x="310" y="862" type="curve" smooth="yes"/>
      <point x="310" y="869" type="line"/>
      <point x="310" y="1156" type="line" smooth="yes"/>
      <point x="310" y="1247"/>
      <point x="339" y="1312"/>
      <point x="397" y="1349" type="curve" smooth="yes"/>
      <point x="456" y="1387"/>
      <point x="558" y="1406"/>
      <point x="704" y="1406" type="curve"/>
      <point x="704" y="1203" type="line"/>
      <point x="585" y="1200"/>
      <point x="548" y="1159"/>
      <point x="548" y="1076" type="curve" smooth="yes"/>
      <point x="548" y="807" type="line"/>
      <point x="544" y="694"/>
      <point x="474" y="628"/>
      <point x="337" y="607" type="curve"/>
      <point x="337" y="597" type="line"/>
      <point x="478" y="576"/>
      <point x="548" y="512"/>
      <point x="548" y="406" type="curve" smooth="yes"/>
      <point x="548" y="398" type="line"/>
      <point x="548" y="129" type="line" smooth="yes"/>
      <point x="548" y="46"/>
      <point x="584" y="5"/>
      <point x="704" y="2" type="curve"/>
      <point x="704" y="-202" type="line"/>
      <point x="558" y="-202"/>
      <point x="456" y="-183"/>
      <point x="397" y="-145" type="curve" smooth="yes"/>
      <point x="339" y="-108"/>
      <point x="310" y="-43"/>
      <point x="310" y="49" type="curve" smooth="yes"/>
    </contour>
  </outline>
</glyph>
<glyph name="braceright" format="1">
  <advance width="804"/>
  <unicode hex="007D"/>
  <outline>
    <contour>
      <point x="494" y="49" type="line" smooth="yes"/>
      <point x="494" y="-18"/>
      <point x="482" y="-68"/>
      <point x="457" y="-102" type="curve" smooth="yes"/>
      <point x="408" y="-171"/>
      <point x="300" y="-202"/>
      <point x="100" y="-202" type="curve"/>
      <point x="100" y="2" type="line"/>
      <point x="219" y="5"/>
      <point x="256" y="44"/>
      <point x="256" y="129" type="curve" smooth="yes"/>
      <point x="256" y="398" type="line"/>
      <point x="256" y="408" type="line" smooth="yes"/>
      <point x="256" y="511"/>
      <point x="329" y="576"/>
      <point x="466" y="597" type="curve"/>
      <point x="466" y="607" type="line"/>
      <point x="330" y="628"/>
      <point x="260" y="694"/>
      <point x="256" y="807" type="curve"/>
      <point x="256" y="1076" type="line" smooth="yes"/>
      <point x="256" y="1160"/>
      <point x="220" y="1200"/>
      <point x="100" y="1203" type="curve"/>
      <point x="100" y="1406" type="line"/>
      <point x="402" y="1400"/>
      <point x="491" y="1352"/>
      <point x="494" y="1156" type="curve"/>
      <point x="494" y="869" type="line"/>
      <point x="494" y="860" type="line" smooth="yes"/>
      <point x="494" y="760"/>
      <point x="565" y="709"/>
      <point x="724" y="709" type="curve"/>
      <point x="724" y="494" type="line"/>
      <point x="575" y="494"/>
      <point x="494" y="449"/>
      <point x="494" y="333" type="curve" smooth="yes"/>
    </contour>
  </outline>
</glyph>
<glyph name="asciitilde" format="1">
  <advance width="1052"/>
  <unicode hex="007E"/>
  <outline>
    <contour>
      <point x="290" y="605" type="curve" smooth="yes"/>
      <point x="223" y="605"/>
      <point x="144" y="560"/>
      <point x="79" y="496" type="curve"/>
      <point x="79" y="704" type="line"/>
      <point x="141" y="769"/>
      <point x="218" y="802"/>
      <point x="310" y="802" type="curve" smooth="yes"/>
      <point x="397" y="802"/>
      <point x="468" y="783"/>
      <point x="559" y="744" type="curve" smooth="yes"/>
      <point x="636" y="711"/>
      <point x="704" y="695"/>
      <point x="763" y="695" type="curve" smooth="yes"/>
      <point x="827" y="695"/>
      <point x="908" y="735"/>
      <point x="973" y="804" type="curve"/>
      <point x="973" y="596" type="line"/>
      <point x="912" y="531"/>
      <point x="835" y="498"/>
      <point x="742" y="498" type="curve" smooth="yes"/>
      <point x="703" y="498"/>
      <point x="665" y="502"/>
      <point x="629" y="509" type="curve" smooth="yes"/>
      <point x="593" y="517"/>
      <point x="548" y="532"/>
      <point x="494" y="554" type="curve"/>
      <point x="415" y="588"/>
      <point x="347" y="605"/>
    </contour>
  </outline>
</glyph>
<glyph name="invertedcandrabindu" format="1">
  <advance width="0"/>
  <unicode hex="0900"/>
  <outline>
    <component base="candrabindudeva" xScale="-1.0" yScale="-1.0" xOffset="-819" yOffset="3143"/>
    <contour>
      <point x="-493" y="1289" type="move" name="_top"/>
    </contour>
  </outline>
</glyph>
<glyph name="candrabindudeva" format="1">
  <advance width="0"/>
  <unicode hex="0901"/>
  <outline>
    <contour>
      <point x="-352" y="1901" type="curve" smooth="yes"/>
      <point x="-268" y="1901"/>
      <point x="-231" y="1845"/>
      <point x="-231" y="1789" type="curve" smooth="yes"/>
      <point x="-231" y="1733"/>
      <point x="-268" y="1676"/>
      <point x="-352" y="1676" type="curve" smooth="yes"/>
      <point x="-432" y="1676"/>
      <point x="-473" y="1731"/>
      <point x="-473" y="1789" type="curve" smooth="yes"/>
      <point x="-473" y="1846"/>
      <point x="-433" y="1901"/>
    </contour>
    <component base="ecandravowelsigndeva"/>
    <contour>
      <point x="-493" y="1289" type="move" name="_top"/>
    </contour>
  </outline>
</glyph>
<glyph name="anusvaradeva" format="1">
  <advance width="0"/>
  <unicode hex="0902"/>
  <outline>
    <contour>
      <point x="-357" y="1737" type="curve" smooth="yes"/>
      <point x="-259" y="1737"/>
      <point x="-215" y="1671"/>
      <point x="-215" y="1607" type="curve" smooth="yes"/>
      <point x="-215" y="1543"/>
      <point x="-259" y="1475"/>
      <point x="-357" y="1475" type="curve" smooth="yes"/>
      <point x="-450" y="1475"/>
      <point x="-499" y="1540"/>
      <point x="-499" y="1607" type="curve" smooth="yes"/>
      <point x="-499" y="1672"/>
      <point x="-451" y="1737"/>
    </contour>
    <contour>
      <point x="-493.0" y="1289.0" type="move" name="_top"/>
    </contour>
  </outline>
</glyph>
<glyph name="ideva" format="1">
  <advance width="1106"/>
  <unicode hex="0907"/>
  <outline>
    <contour>
      <point x="540" y="138" type="line"/>
      <point x="833" y="-175" type="line"/>
      <point x="656" y="-289" type="line"/>
      <point x="322" y="76" type="line"/>
      <point x="439" y="-6" type="line"/>
      <point x="188" y="-6"/>
      <point x="97" y="95"/>
      <point x="97" y="174" type="curve" smooth="yes"/>
      <point x="97" y="246"/>
      <point x="159" y="312"/>
      <point x="250" y="312" type="curve" smooth="yes"/>
      <point x="335" y="312"/>
      <point x="413" y="273"/>
      <point x="518" y="164" type="curve"/>
    </contour>
    <contour>
      <point x="618" y="1121" type="line"/>
      <point x="904" y="1121" type="line"/>
      <point x="904" y="757" type="line"/>
      <point x="453" y="757" type="line"/>
      <point x="368" y="757"/>
      <point x="325" y="717"/>
      <point x="325" y="667" type="curve" smooth="yes"/>
      <point x="325" y="619"/>
      <point x="367" y="585"/>
      <point x="439" y="555" type="curve"/>
      <point x="323" y="566" type="line"/>
      <point x="413" y="603"/>
      <point x="513" y="630"/>
      <point x="658" y="630" type="curve" smooth="yes"/>
      <point x="865" y="630"/>
      <point x="1011" y="512"/>
      <point x="1011" y="344" type="curve" smooth="yes"/>
      <point x="1011" y="167"/>
      <point x="841" y="-4"/>
      <point x="490" y="-4" type="curve"/>
      <point x="441" y="208" type="line"/>
      <point x="666" y="208"/>
      <point x="746" y="289"/>
      <point x="746" y="347" type="curve" smooth="yes"/>
      <point x="746" y="395"/>
      <point x="702" y="424"/>
      <point x="625" y="424" type="curve" smooth="yes"/>
      <point x="553" y="424"/>
      <point x="463" y="394"/>
      <point x="389" y="358" type="curve"/>
      <point x="373" y="358" type="line"/>
      <point x="152" y="459"/>
      <point x="69" y="570"/>
      <point x="69" y="708" type="curve" smooth="yes"/>
      <point x="69" y="834"/>
      <point x="166" y="948"/>
      <point x="399" y="948" type="curve" smooth="yes"/>
      <point x="679" y="948" type="line"/>
      <point x="618" y="887" type="line"/>
    </contour>
    <contour>
      <point x="1136" y="1096" type="line"/>
      <point x="-30" y="1096" type="line"/>
      <point x="-30" y="1289" type="line"/>
      <point x="1136" y="1289" type="line"/>
    </contour>
  </outline>
</glyph>
<glyph name="udeva" format="1">
  <advance width="1107"/>
  <unicode hex="0909"/>
  <outline>
    <contour>
      <point x="287" y="567" type="line"/>
      <point x="239" y="798" type="line"/>
      <point x="290" y="801" type="line"/>
      <point x="576" y="813"/>
      <point x="646" y="885"/>
      <point x="646" y="974" type="curve" smooth="yes"/>
      <point x="646" y="1040"/>
      <point x="611" y="1084"/>
      <point x="505" y="1109" type="curve"/>
      <point x="592" y="1265" type="line"/>
      <point x="793" y="1229"/>
      <point x="908" y="1131"/>
      <point x="908" y="942" type="curve" smooth="yes"/>
      <point x="908" y="746"/>
      <point x="737" y="582"/>
      <point x="343" y="569" type="curve" smooth="yes"/>
    </contour>
    <contour>
      <point x="-30" y="1096" type="line"/>
      <point x="-30" y="1289" type="line"/>
      <point x="1137" y="1289" type="line"/>
      <point x="1137" y="1096" type="line"/>
    </contour>
    <contour>
      <point x="689" y="765" type="line"/>
      <point x="880" y="689"/>
      <point x="998" y="538"/>
      <point x="998" y="367" type="curve" smooth="yes"/>
      <point x="998" y="159"/>
      <point x="842" y="0"/>
      <point x="571" y="0" type="curve" smooth="yes"/>
      <point x="373" y="0"/>
      <point x="193" y="66"/>
      <point x="33" y="175" type="curve"/>
      <point x="105" y="397" type="line"/>
      <point x="239" y="298"/>
      <point x="396" y="245"/>
      <point x="516" y="245" type="curve" smooth="yes"/>
      <point x="645" y="245"/>
      <point x="718" y="314"/>
      <point x="718" y="410" type="curve" smooth="yes"/>
      <point x="718" y="494"/>
      <point x="650" y="579"/>
      <point x="513" y="612" type="curve"/>
    </contour>
    <contour>
      <point x="530" y="1289" type="move" name="top"/>
    </contour>
  </outline>
</glyph>
<glyph name="ngadeva" format="1">
  <advance width="1270"/>
  <unicode hex="0919"/>
  <outline>
    <contour>
      <point x="1149" y="1096" type="line"/>
      <point x="1149" y="1289" type="line"/>
      <point x="1445" y="1289" type="line"/>
      <point x="1445" y="1096" type="line"/>
    </contour>
    <contour>
      <point x="1201" y="809" type="curve" smooth="yes"/>
      <point x="1314" y="809"/>
      <point x="1353" y="741"/>
      <point x="1353" y="678" type="curve" smooth="yes"/>
      <point x="1353" y="616"/>
      <point x="1308" y="547"/>
      <point x="1201" y="547" type="curve" smooth="yes"/>
      <point x="1087" y="547"/>
      <point x="1047" y="616"/>
      <point x="1047" y="678" type="curve" smooth="yes"/>
      <point x="1047" y="740"/>
      <point x="1090" y="809"/>
    </contour>
    <component base="ddadeva"/>
    <contour>
      <point x="517.0" y="7.0" type="move" name="btm"/>
    </contour>
    <contour>
      <point x="712.0" y="1289.0" type="move" name="top"/>
    </contour>
  </outline>
</glyph>
<glyph name="jhadeva" format="1">
  <advance width="1732"/>
  <unicode hex="091D"/>
  <outline>
    <contour>
      <point x="1297" y="610" type="curve"/>
      <point x="1318" y="341" type="line"/>
      <point x="1266" y="320"/>
      <point x="1192" y="309"/>
      <point x="1129" y="309" type="curve" smooth="yes"/>
      <point x="1016" y="309"/>
      <point x="932" y="324"/>
      <point x="866" y="339" type="curve"/>
      <point x="860" y="552" type="line"/>
      <point x="923" y="536"/>
      <point x="983" y="529"/>
      <point x="1042" y="529" type="curve" smooth="yes"/>
      <point x="1122" y="529"/>
      <point x="1224" y="551"/>
    </contour>
    <contour>
      <point x="1241" y="1132" type="line"/>
      <point x="1527" y="1132" type="line"/>
      <point x="1527" y="0" type="line"/>
      <point x="1241" y="0" type="line"/>
    </contour>
    <contour>
      <point x="1762" y="1096" type="line"/>
      <point x="1058" y="1096" type="line"/>
      <point x="1058" y="1289" type="line"/>
      <point x="1762" y="1289" type="line"/>
    </contour>
    <component base="ideva"/>
    <contour>
      <point x="1241" y="1289" type="move" name="top"/>
    </contour>
  </outline>
</glyph>
<glyph name="ttadeva" format="1">
  <advance width="1195"/>
  <unicode hex="091F"/>
  <outline>
    <contour>
      <point x="694" y="1133" type="line"/>
      <point x="980" y="1133" type="line"/>
      <point x="980" y="690" type="line"/>
      <point x="652" y="690" type="line"/>
      <point x="460" y="690"/>
      <point x="381" y="586"/>
      <point x="381" y="470" type="curve" smooth="yes"/>
      <point x="381" y="344"/>
      <point x="481" y="263"/>
      <point x="654" y="263" type="curve" smooth="yes"/>
      <point x="774" y="263"/>
      <point x="879" y="291"/>
      <point x="1019" y="344" type="curve"/>
      <point x="1076" y="97" type="line"/>
      <point x="949" y="47"/>
      <point x="854" y="27"/>
      <point x="699" y="27" type="curve" smooth="yes"/>
      <point x="327" y="27"/>
      <point x="95" y="250"/>
      <point x="95" y="506" type="curve" smooth="yes"/>
      <point x="95" y="750"/>
      <point x="260" y="903"/>
      <point x="569" y="903" type="curve" smooth="yes"/>
      <point x="733" y="903" type="line"/>
      <point x="694" y="862" type="line"/>
    </contour>
    <contour>
      <point x="1225" y="1096" type="line"/>
      <point x="-30" y="1096" type="line"/>
      <point x="-30" y="1289" type="line"/>
      <point x="1225" y="1289" type="line"/>
    </contour>
    <contour>
      <point x="537" y="42" type="move" name="btm"/>
    </contour>
    <contour>
      <point x="662" y="1289" type="move" name="top"/>
    </contour>
  </outline>
</glyph>
<glyph name="tthadeva" format="1">
  <advance width="1327"/>
  <unicode hex="0920"/>
  <outline>
    <contour>
      <point x="983" y="487" type="curve" smooth="yes"/>
      <point x="983" y="565"/>
      <point x="943" y="639"/>
      <point x="873" y="691" type="curve"/>
      <point x="666" y="691" type="line"/>
      <point x="448" y="691"/>
      <point x="356" y="594"/>
      <point x="356" y="472" type="curve" smooth="yes"/>
      <point x="356" y="345"/>
      <point x="469" y="242"/>
      <point x="660" y="242" type="curve" smooth="yes"/>
      <point x="867" y="242"/>
      <point x="983" y="344"/>
    </contour>
    <contour>
      <point x="1357" y="1096" type="line"/>
      <point x="-30" y="1096" type="line"/>
      <point x="-30" y="1289" type="line"/>
      <point x="1357" y="1289" type="line"/>
    </contour>
    <contour>
      <point x="818" y="1121" type="line"/>
      <point x="1104" y="1121" type="line"/>
      <point x="1104" y="751" type="line"/>
      <point x="1021" y="862" type="line"/>
      <point x="1131" y="786"/>
      <point x="1237" y="625"/>
      <point x="1238" y="449" type="curve" smooth="yes"/>
      <point x="1238" y="218"/>
      <point x="1082" y="7"/>
      <point x="701" y="7" type="curve" smooth="yes"/>
      <point x="302" y="7"/>
      <point x="86" y="248"/>
      <point x="86" y="512" type="curve" smooth="yes"/>
      <point x="86" y="749"/>
      <point x="260" y="903"/>
      <point x="565" y="903" type="curve" smooth="yes"/>
      <point x="874" y="903" type="line"/>
      <point x="818" y="852" type="line"/>
    </contour>
    <contour>
      <point x="537" y="42" type="move" name="btm"/>
    </contour>
    <contour>
      <point x="757" y="1289" type="move" name="top"/>
    </contour>
  </outline>
</glyph>
<glyph name="ddadeva" format="1">
  <advance width="1229"/>
  <unicode hex="0921"/>
  <outline>
    <contour>
      <point x="713" y="1121" type="line"/>
      <point x="999" y="1121" type="line"/>
      <point x="999" y="757" type="line"/>
      <point x="507" y="757" type="line"/>
      <point x="424" y="757"/>
      <point x="390" y="716"/>
      <point x="390" y="667" type="curve" smooth="yes"/>
      <point x="390" y="620"/>
      <point x="422" y="584"/>
      <point x="498" y="554" type="curve"/>
      <point x="388" y="566" type="line"/>
      <point x="470" y="606"/>
      <point x="575" y="632"/>
      <point x="711" y="632" type="curve" smooth="yes"/>
      <point x="978" y="632"/>
      <point x="1115" y="492"/>
      <point x="1115" y="321" type="curve" smooth="yes"/>
      <point x="1115" y="138"/>
      <point x="991" y="-13"/>
      <point x="662" y="-13" type="curve" smooth="yes"/>
      <point x="481" y="-13"/>
      <point x="291" y="32"/>
      <point x="104" y="118" type="curve"/>
      <point x="157" y="329" type="line"/>
      <point x="325" y="240"/>
      <point x="481" y="198"/>
      <point x="619" y="198" type="curve" smooth="yes"/>
      <point x="777" y="198"/>
      <point x="845" y="252"/>
      <point x="845" y="325" type="curve" smooth="yes"/>
      <point x="845" y="381"/>
      <point x="797" y="420"/>
      <point x="704" y="420" type="curve" smooth="yes"/>
      <point x="619" y="420"/>
      <point x="521" y="391"/>
      <point x="454" y="356" type="curve"/>
      <point x="432" y="356" type="line"/>
      <point x="211" y="455"/>
      <point x="124" y="571"/>
      <point x="124" y="710" type="curve" smooth="yes"/>
      <point x="124" y="830"/>
      <point x="212" y="948"/>
      <point x="438" y="948" type="curve" smooth="yes"/>
      <point x="773" y="948" type="line"/>
      <point x="713" y="887" type="line"/>
    </contour>
    <contour>
      <point x="1259" y="1096" type="line"/>
      <point x="-30" y="1096" type="line"/>
      <point x="-30" y="1289" type="line"/>
      <point x="1259" y="1289" type="line"/>
    </contour>
    <contour>
      <point x="526" y="20" type="move" name="btm"/>
    </contour>
    <contour>
      <point x="712" y="1289" type="move" name="top"/>
    </contour>
  </outline>
</glyph>
<glyph name="ddhadeva" format="1">
  <advance width="1257"/>
  <unicode hex="0922"/>
  <outline>
    <contour>
      <point x="1287" y="1096" type="line"/>
      <point x="-30" y="1096" type="line"/>
      <point x="-30" y="1289" type="line"/>
      <point x="1287" y="1289" type="line"/>
    </contour>
    <contour>
      <point x="743" y="1126" type="line"/>
      <point x="1028" y="1126" type="line"/>
      <point x="1028" y="699" type="line"/>
      <point x="671" y="699" type="line"/>
      <point x="419" y="699"/>
      <point x="344" y="591"/>
      <point x="344" y="448" type="curve" smooth="yes"/>
      <point x="344" y="306"/>
      <point x="503" y="185"/>
      <point x="726" y="185" type="curve" smooth="yes"/>
      <point x="889" y="185"/>
      <point x="959" y="247"/>
      <point x="959" y="318" type="curve" smooth="yes"/>
      <point x="959" y="364"/>
      <point x="919" y="398"/>
      <point x="849" y="398" type="curve" smooth="yes"/>
      <point x="763" y="398"/>
      <point x="711" y="337"/>
      <point x="711" y="260" type="curve" smooth="yes"/>
      <point x="711" y="212"/>
      <point x="725" y="165"/>
      <point x="752" y="121" type="curve"/>
      <point x="546" y="98" type="line"/>
      <point x="506" y="160"/>
      <point x="490" y="218"/>
      <point x="490" y="288" type="curve" smooth="yes"/>
      <point x="490" y="435"/>
      <point x="608" y="566"/>
      <point x="839" y="566" type="curve" smooth="yes"/>
      <point x="1054" y="566"/>
      <point x="1178" y="448"/>
      <point x="1178" y="306" type="curve" smooth="yes"/>
      <point x="1178" y="135"/>
      <point x="1028" y="17"/>
      <point x="731" y="17" type="curve" smooth="yes"/>
      <point x="321" y="17"/>
      <point x="84" y="252"/>
      <point x="84" y="505" type="curve" smooth="yes"/>
      <point x="84" y="723"/>
      <point x="225" y="903"/>
      <point x="579" y="903" type="curve" smooth="yes"/>
      <point x="784" y="903" type="line"/>
      <point x="743" y="869" type="line"/>
    </contour>
    <contour>
      <point x="557.0" y="34.0" type="move" name="btm"/>
    </contour>
    <contour>
      <point x="717.0" y="1289.0" type="move" name="top"/>
    </contour>
  </outline>
</glyph>
<glyph name="thadeva" format="1">
  <advance width="1448"/>
  <unicode hex="0925"/>
  <outline>
    <contour>
      <point x="759" y="948" type="curve" smooth="yes"/>
      <point x="759" y="734"/>
      <point x="594" y="587"/>
      <point x="377" y="523" type="curve"/>
      <point x="380" y="624" type="line"/>
      <point x="455" y="522"/>
      <point x="553" y="465"/>
      <point x="669" y="465" type="curve" smooth="yes"/>
      <point x="816" y="465"/>
      <point x="941" y="539"/>
      <point x="1011" y="688" type="curve"/>
      <point x="1011" y="300" type="line"/>
      <point x="952" y="260"/>
      <point x="867" y="233"/>
      <point x="758" y="233" type="curve" smooth="yes"/>
      <point x="490" y="233"/>
      <point x="239" y="394"/>
      <point x="108" y="644" type="curve"/>
      <point x="114" y="661" type="line"/>
      <point x="338" y="713"/>
      <point x="515" y="833"/>
      <point x="515" y="979" type="curve" smooth="yes"/>
      <point x="515" y="1078"/>
      <point x="442" y="1140"/>
      <point x="365" y="1140" type="curve" smooth="yes"/>
      <point x="300" y="1140"/>
      <point x="268" y="1100"/>
      <point x="268" y="1044" type="curve" smooth="yes"/>
      <point x="268" y="970"/>
      <point x="335" y="911"/>
      <point x="508" y="876" type="curve"/>
      <point x="408" y="723" type="line"/>
      <point x="142" y="781"/>
      <point x="16" y="928"/>
      <point x="16" y="1093" type="curve" smooth="yes"/>
      <point x="16" y="1221"/>
      <point x="119" y="1341"/>
      <point x="312" y="1341" type="curve" smooth="yes"/>
      <point x="588" y="1341"/>
      <point x="759" y="1158"/>
    </contour>
    <contour>
      <point x="957" y="1132" type="line"/>
      <point x="1243" y="1132" type="line"/>
      <point x="1243" y="0" type="line"/>
      <point x="957" y="0" type="line"/>
    </contour>
    <contour>
      <point x="1478" y="1096" type="line"/>
      <point x="868" y="1096" type="line"/>
      <point x="868" y="1289" type="line"/>
      <point x="1478" y="1289" type="line"/>
    </contour>
    <contour>
      <point x="957" y="1289" type="move" name="top"/>
    </contour>
  </outline>
</glyph>
<glyph name="dadeva" format="1">
  <advance width="1200"/>
  <unicode hex="0926"/>
  <outline>
    <contour>
      <point x="-30" y="1096" type="line"/>
      <point x="-30" y="1289" type="line"/>
      <point x="1230" y="1289" type="line"/>
      <point x="1230" y="1096" type="line"/>
    </contour>
    <contour>
      <point x="696" y="184" type="line"/>
      <point x="915" y="254" type="line"/>
      <point x="1124" y="-144" type="line"/>
      <point x="914" y="-232" type="line"/>
    </contour>
    <contour>
      <point x="677" y="75" type="curve" smooth="yes"/>
      <point x="313" y="75"/>
      <point x="83" y="270"/>
      <point x="83" y="527" type="curve" smooth="yes"/>
      <point x="83" y="733"/>
      <point x="223" y="904"/>
      <point x="557" y="904" type="curve" smooth="yes"/>
      <point x="765" y="904" type="line"/>
      <point x="703" y="850" type="line"/>
      <point x="703" y="1131" type="line"/>
      <point x="989" y="1131" type="line"/>
      <point x="989" y="699" type="line"/>
      <point x="657" y="699" type="line"/>
      <point x="439" y="699"/>
      <point x="356" y="603"/>
      <point x="356" y="486" type="curve" smooth="yes"/>
      <point x="356" y="368"/>
      <point x="467" y="281"/>
      <point x="617" y="281" type="curve" smooth="yes"/>
      <point x="703" y="281"/>
      <point x="759" y="288"/>
      <point x="857" y="320" type="curve"/>
      <point x="675" y="224" type="line"/>
      <point x="644" y="277"/>
      <point x="622" y="320"/>
      <point x="623" y="371" type="curve" smooth="yes"/>
      <point x="624" y="430"/>
      <point x="671" y="488"/>
      <point x="790" y="488" type="curve" smooth="yes"/>
      <point x="960" y="488"/>
      <point x="1108" y="406"/>
      <point x="1108" y="311" type="curve" smooth="yes"/>
      <point x="1108" y="212"/>
      <point x="976" y="75"/>
    </contour>
    <contour>
      <point x="878" y="-164" type="move" name="btm"/>
    </contour>
    <contour>
      <point x="664" y="1289" type="move" name="top"/>
    </contour>
  </outline>
</glyph>
<glyph name="dhadeva" format="1">
  <advance width="1476"/>
  <unicode hex="0927"/>
  <outline>
    <contour>
      <point x="801" y="658" type="line"/>
      <point x="774" y="658" type="line"/>
      <point x="599" y="658"/>
      <point x="535" y="580"/>
      <point x="535" y="505" type="curve" smooth="yes"/>
      <point x="535" y="436"/>
      <point x="597" y="387"/>
      <point x="687" y="387" type="curve" smooth="yes"/>
      <point x="842" y="387"/>
      <point x="981" y="482"/>
      <point x="1047" y="613" type="curve"/>
      <point x="1047" y="243" type="line"/>
      <point x="963" y="176"/>
      <point x="855" y="140"/>
      <point x="715" y="140" type="curve" smooth="yes"/>
      <point x="435" y="140"/>
      <point x="271" y="324"/>
      <point x="271" y="530" type="curve" smooth="yes"/>
      <point x="271" y="712"/>
      <point x="406" y="885"/>
      <point x="707" y="885" type="curve" smooth="yes"/>
      <point x="751" y="885" type="line"/>
    </contour>
    <contour>
      <point x="986" y="1131" type="line"/>
      <point x="1272" y="1131" type="line"/>
      <point x="1272" y="0" type="line"/>
      <point x="986" y="0" type="line"/>
    </contour>
    <contour>
      <point x="1506" y="1096" type="line"/>
      <point x="853" y="1096" type="line"/>
      <point x="853" y="1289" type="line"/>
      <point x="1506" y="1289" type="line"/>
    </contour>
    <contour>
      <point x="354" y="686" type="line"/>
      <point x="234" y="712"/>
      <point x="136" y="762"/>
      <point x="68" y="830" type="curve" smooth="yes"/>
      <point x="-1" y="898"/>
      <point x="-39" y="986"/>
      <point x="-39" y="1083" type="curve" smooth="yes"/>
      <point x="-39" y="1246"/>
      <point x="80" y="1385"/>
      <point x="299" y="1385" type="curve" smooth="yes"/>
      <point x="522" y="1385"/>
      <point x="648" y="1246"/>
      <point x="648" y="1089" type="curve" smooth="yes"/>
      <point x="648" y="921"/>
      <point x="494" y="799"/>
      <point x="286" y="799" type="curve"/>
      <point x="194" y="945" type="line"/>
      <point x="346" y="945"/>
      <point x="425" y="1019"/>
      <point x="425" y="1101" type="curve" smooth="yes"/>
      <point x="425" y="1153"/>
      <point x="388" y="1190"/>
      <point x="326" y="1190" type="curve" smooth="yes"/>
      <point x="252" y="1190"/>
      <point x="200" y="1128"/>
      <point x="200" y="1061" type="curve" smooth="yes"/>
      <point x="200" y="1022"/>
      <point x="213" y="987"/>
      <point x="244" y="956" type="curve" smooth="yes"/>
      <point x="297" y="903"/>
      <point x="402" y="865"/>
      <point x="582" y="856" type="curve"/>
    </contour>
    <contour>
      <point x="986" y="1289" type="move" name="top"/>
    </contour>
  </outline>
</glyph>
<glyph name="phadeva" format="1">
  <advance width="1762"/>
  <unicode hex="092B"/>
  <outline>
    <contour>
      <point x="419" y="1187" type="line"/>
      <point x="419" y="728" type="line"/>
      <point x="419" y="620"/>
      <point x="472" y="566"/>
      <point x="565" y="566" type="curve" smooth="yes"/>
      <point x="645" y="566"/>
      <point x="726" y="599"/>
      <point x="796" y="666" type="curve"/>
      <point x="796" y="365" type="line"/>
      <point x="740" y="345"/>
      <point x="676" y="335"/>
      <point x="602" y="335" type="curve" smooth="yes"/>
      <point x="315" y="335"/>
      <point x="133" y="498"/>
      <point x="133" y="793" type="curve" smooth="yes"/>
      <point x="133" y="1187" type="line"/>
    </contour>
    <contour>
      <point x="-30" y="1096" type="line"/>
      <point x="-30" y="1289" type="line"/>
      <point x="1792" y="1289" type="line"/>
      <point x="1792" y="1096" type="line"/>
    </contour>
    <contour>
      <point x="766" y="1132" type="line"/>
      <point x="1052" y="1132" type="line"/>
      <point x="1052" y="0" type="line"/>
      <point x="766" y="0" type="line"/>
    </contour>
    <contour>
      <point x="1016" y="419" type="curve"/>
      <point x="1010" y="776" type="line"/>
      <point x="1065" y="798"/>
      <point x="1125" y="814"/>
      <point x="1226" y="814" type="curve" smooth="yes"/>
      <point x="1488" y="814"/>
      <point x="1665" y="641"/>
      <point x="1665" y="431" type="curve" smooth="yes"/>
      <point x="1665" y="302"/>
      <point x="1621" y="180"/>
      <point x="1542" y="74" type="curve"/>
      <point x="1291" y="159" type="line"/>
      <point x="1364" y="261"/>
      <point x="1401" y="349"/>
      <point x="1401" y="441" type="curve" smooth="yes"/>
      <point x="1401" y="518"/>
      <point x="1347" y="577"/>
      <point x="1260" y="577" type="curve" smooth="yes"/>
      <point x="1172" y="577"/>
      <point x="1089" y="527"/>
    </contour>
    <contour>
      <point x="765" y="0" type="move" name="btm"/>
    </contour>
    <contour>
      <point x="766" y="1289" type="move" name="top"/>
    </contour>
  </outline>
</glyph>
<glyph name="radeva" format="1">
  <advance width="961"/>
  <unicode hex="0930"/>
  <outline>
    <contour>
      <point x="795" y="84" type="line"/>
      <point x="596" y="-49" type="line"/>
      <point x="106" y="600" type="line"/>
      <point x="62" y="657"/>
      <point x="35" y="702"/>
      <point x="35" y="753" type="curve" smooth="yes"/>
      <point x="35" y="817"/>
      <point x="85" y="873"/>
      <point x="157" y="873" type="curve" smooth="yes"/>
      <point x="213" y="873"/>
      <point x="253" y="843"/>
      <point x="288" y="797" type="curve" smooth="yes"/>
      <point x="403" y="641" type="line"/>
      <point x="394" y="620" type="line"/>
    </contour>
    <contour>
      <point x="312" y="681" type="line"/>
      <point x="469" y="725"/>
      <point x="524" y="804"/>
      <point x="524" y="942" type="curve" smooth="yes"/>
      <point x="524" y="1147" type="line"/>
      <point x="811" y="1147" type="line"/>
      <point x="811" y="898" type="line"/>
      <point x="811" y="697"/>
      <point x="708" y="534"/>
      <point x="481" y="450" type="curve"/>
    </contour>
    <contour>
      <point x="-30" y="1096" type="line"/>
      <point x="-30" y="1289" type="line"/>
      <point x="991" y="1289" type="line"/>
      <point x="991" y="1096" type="line"/>
    </contour>
    <contour>
      <point x="450" y="35" type="move" name="btm"/>
    </contour>
    <contour>
      <point x="524" y="1289" type="move" name="top"/>
    </contour>
  </outline>
</glyph>
<glyph name="ladeva" format="1">
  <advance width="1641"/>
  <unicode hex="0932"/>
  <outline>
    <contour>
      <point x="1151" y="1132" type="line"/>
      <point x="1437" y="1132" type="line"/>
      <point x="1437" y="0" type="line"/>
      <point x="1151" y="0" type="line"/>
    </contour>
    <contour>
      <point x="-56" y="1096" type="line"/>
      <point x="-56" y="1289" type="line"/>
      <point x="1671" y="1289" type="line"/>
      <point x="1671" y="1096" type="line"/>
    </contour>
    <contour>
      <point x="1247" y="978" type="line"/>
      <point x="1247" y="635" type="line"/>
      <point x="752" y="227" type="line"/>
      <point x="574" y="402" type="line"/>
    </contour>
    <contour>
      <point x="995" y="659" type="curve"/>
      <point x="809" y="497" type="line"/>
      <point x="713" y="611"/>
      <point x="622" y="659"/>
      <point x="520" y="659" type="curve" smooth="yes"/>
      <point x="405" y="659"/>
      <point x="331" y="570"/>
      <point x="331" y="468" type="curve" smooth="yes"/>
      <point x="331" y="359"/>
      <point x="384" y="260"/>
      <point x="555" y="103" type="curve"/>
      <point x="335" y="-21" type="line"/>
      <point x="159" y="137"/>
      <point x="53" y="321"/>
      <point x="53" y="518" type="curve" smooth="yes"/>
      <point x="53" y="735"/>
      <point x="215" y="910"/>
      <point x="471" y="910" type="curve" smooth="yes"/>
      <point x="688" y="910"/>
      <point x="849" y="817"/>
    </contour>
    <contour>
      <point x="1151" y="1289" type="move" name="top"/>
    </contour>
  </outline>
</glyph>
<glyph name="lladeva" format="1">
  <advance width="1716"/>
  <unicode hex="0933"/>
  <outline>
    <contour>
      <point x="1746" y="1096" type="line"/>
      <point x="-30" y="1096" type="line"/>
      <point x="-30" y="1289" type="line"/>
      <point x="1746" y="1289" type="line"/>
    </contour>
    <contour>
      <point x="734" y="555" type="curve" smooth="yes"/>
      <point x="828" y="776"/>
      <point x="968" y="920"/>
      <point x="1213" y="920" type="curve" smooth="yes"/>
      <point x="1504" y="920"/>
      <point x="1638" y="715"/>
      <point x="1638" y="485" type="curve" smooth="yes"/>
      <point x="1638" y="234"/>
      <point x="1479" y="66"/>
      <point x="1218" y="66" type="curve" smooth="yes"/>
      <point x="1033" y="66"/>
      <point x="893" y="136"/>
      <point x="736" y="264" type="curve"/>
      <point x="830" y="459" type="line"/>
      <point x="941" y="352"/>
      <point x="1058" y="300"/>
      <point x="1173" y="300" type="curve" smooth="yes"/>
      <point x="1302" y="300"/>
      <point x="1386" y="382"/>
      <point x="1386" y="514" type="curve" smooth="yes"/>
      <point x="1386" y="616"/>
      <point x="1325" y="680"/>
      <point x="1231" y="680" type="curve" smooth="yes"/>
      <point x="1146" y="680"/>
      <point x="1055" y="610"/>
      <point x="998" y="476" type="curve" smooth="yes"/>
      <point x="895" y="237"/>
      <point x="745" y="70"/>
      <point x="503" y="70" type="curve" smooth="yes"/>
      <point x="229" y="70"/>
      <point x="73" y="249"/>
      <point x="73" y="500" type="curve" smooth="yes"/>
      <point x="73" y="729"/>
      <point x="237" y="914"/>
      <point x="497" y="914" type="curve" smooth="yes"/>
      <point x="673" y="914"/>
      <point x="820" y="851"/>
      <point x="960" y="731" type="curve"/>
      <point x="877" y="551" type="line"/>
      <point x="757" y="640"/>
      <point x="647" y="679"/>
      <point x="546" y="679" type="curve" smooth="yes"/>
      <point x="413" y="679"/>
      <point x="334" y="586"/>
      <point x="334" y="468" type="curve" smooth="yes"/>
      <point x="334" y="361"/>
      <point x="394" y="303"/>
      <point x="478" y="303" type="curve" smooth="yes"/>
      <point x="572" y="303"/>
      <point x="659" y="377"/>
    </contour>
    <contour>
      <point x="1511" y="794" type="line"/>
      <point x="1225" y="799" type="line"/>
      <point x="1225" y="1118" type="line"/>
      <point x="1511" y="1118" type="line"/>
    </contour>
    <contour>
      <point x="1092" y="9" type="move" name="btm"/>
    </contour>
    <contour>
      <point x="1157" y="1289" type="move" name="top"/>
    </contour>
  </outline>
</glyph>
<glyph name="shadeva" format="1">
  <advance width="1665"/>
  <unicode hex="0936"/>
  <outline>
    <contour>
      <point x="582" y="433" type="line"/>
      <point x="897" y="108" type="line"/>
      <point x="730" y="-45" type="line"/>
      <point x="372" y="321" type="line"/>
    </contour>
    <contour>
      <point x="279" y="255" type="curve" smooth="yes"/>
      <point x="160" y="255"/>
      <point x="120" y="336"/>
      <point x="120" y="428" type="curve" smooth="yes"/>
      <point x="120" y="538"/>
      <point x="203" y="648"/>
      <point x="304" y="648" type="curve" smooth="yes"/>
      <point x="379" y="648"/>
      <point x="434" y="609"/>
      <point x="515" y="525" type="curve"/>
      <point x="399" y="531" type="line"/>
      <point x="585" y="579"/>
      <point x="717" y="712"/>
      <point x="717" y="896" type="curve" smooth="yes"/>
      <point x="717" y="1034"/>
      <point x="612" y="1126"/>
      <point x="507" y="1126" type="curve" smooth="yes"/>
      <point x="432" y="1126"/>
      <point x="394" y="1082"/>
      <point x="395" y="1032" type="curve" smooth="yes"/>
      <point x="396" y="955"/>
      <point x="475" y="875"/>
      <point x="775" y="876" type="curve"/>
      <point x="722" y="696" type="line"/>
      <point x="325" y="696"/>
      <point x="142" y="856"/>
      <point x="142" y="1064" type="curve" smooth="yes"/>
      <point x="142" y="1203"/>
      <point x="252" y="1345"/>
      <point x="476" y="1345" type="curve" smooth="yes"/>
      <point x="743" y="1345"/>
      <point x="953" y="1160"/>
      <point x="953" y="875" type="curve" smooth="yes"/>
      <point x="953" y="513"/>
      <point x="565" y="255"/>
    </contour>
    <contour>
      <point x="1175" y="1132" type="line"/>
      <point x="1461" y="1132" type="line"/>
      <point x="1461" y="0" type="line"/>
      <point x="1175" y="0" type="line"/>
    </contour>
    <contour>
      <point x="1695" y="1096" type="line"/>
      <point x="1012" y="1096" type="line"/>
      <point x="1012" y="1289" type="line"/>
      <point x="1695" y="1289" type="line"/>
    </contour>
    <contour>
      <point x="1174" y="1289" type="move" name="top"/>
    </contour>
  </outline>
</glyph>
<glyph name="ssadeva" format="1">
  <advance width="1260"/>
  <unicode hex="0937"/>
  <outline>
    <contour>
      <point x="877" y="610" type="line"/>
      <point x="751" y="514" type="line"/>
      <point x="283" y="1082" type="line"/>
      <point x="406" y="1178" type="line"/>
    </contour>
    <contour>
      <point x="1290" y="1096" type="line"/>
      <point x="-30" y="1096" type="line"/>
      <point x="-30" y="1289" type="line"/>
      <point x="1290" y="1289" type="line"/>
    </contour>
    <contour>
      <point x="400" y="1180" type="line"/>
      <point x="400" y="703" type="line"/>
      <point x="400" y="593"/>
      <point x="463" y="538"/>
      <point x="558" y="538" type="curve" smooth="yes"/>
      <point x="653" y="538"/>
      <point x="727" y="566"/>
      <point x="797" y="637" type="curve"/>
      <point x="797" y="340" type="line"/>
      <point x="741" y="321"/>
      <point x="667" y="308"/>
      <point x="591" y="308" type="curve" smooth="yes"/>
      <point x="313" y="308"/>
      <point x="126" y="472"/>
      <point x="126" y="760" type="curve" smooth="yes"/>
      <point x="126" y="1180" type="line"/>
    </contour>
    <contour>
      <point x="770" y="1132" type="line"/>
      <point x="1056" y="1132" type="line"/>
      <point x="1056" y="0" type="line"/>
      <point x="770" y="0" type="line"/>
    </contour>
    <contour>
      <point x="769" y="1289" type="move" name="top"/>
    </contour>
  </outline>
</glyph>
<glyph name="sadeva" format="1">
  <advance width="1574"/>
  <unicode hex="0938"/>
  <outline>
    <contour>
      <point x="795" y="84" type="line"/>
      <point x="592" y="-48" type="line"/>
      <point x="102" y="601" type="line"/>
      <point x="58" y="658"/>
      <point x="36" y="705"/>
      <point x="36" y="755" type="curve" smooth="yes"/>
      <point x="36" y="819"/>
      <point x="83" y="873"/>
      <point x="157" y="873" type="curve" smooth="yes"/>
      <point x="213" y="873"/>
      <point x="253" y="843"/>
      <point x="288" y="797" type="curve" smooth="yes"/>
      <point x="403" y="641" type="line"/>
      <point x="394" y="620" type="line"/>
    </contour>
    <contour>
      <point x="254" y="687" type="line"/>
      <point x="396" y="731"/>
      <point x="454" y="805"/>
      <point x="454" y="949" type="curve" smooth="yes"/>
      <point x="454" y="1147" type="line"/>
      <point x="740" y="1147" type="line"/>
      <point x="740" y="905" type="line"/>
      <point x="740" y="718"/>
      <point x="637" y="555"/>
      <point x="409" y="463" type="curve"/>
    </contour>
    <contour>
      <point x="-30" y="1096" type="line"/>
      <point x="-30" y="1289" type="line"/>
      <point x="1604" y="1289" type="line"/>
      <point x="1604" y="1096" type="line"/>
    </contour>
    <contour>
      <point x="506" y="523" type="curve"/>
      <point x="607" y="734" type="line"/>
      <point x="688" y="704"/>
      <point x="787" y="687"/>
      <point x="859" y="687" type="curve" smooth="yes"/>
      <point x="953" y="687"/>
      <point x="1048" y="705"/>
      <point x="1129" y="737" type="curve"/>
      <point x="1129" y="468" type="line"/>
      <point x="1065" y="449"/>
      <point x="983" y="440"/>
      <point x="906" y="440" type="curve" smooth="yes"/>
      <point x="783" y="440"/>
      <point x="640" y="466"/>
    </contour>
    <contour>
      <point x="1083" y="1132" type="line"/>
      <point x="1369" y="1132" type="line"/>
      <point x="1369" y="0" type="line"/>
      <point x="1083" y="0" type="line"/>
    </contour>
    <contour>
      <point x="1083" y="1289" type="move" name="top"/>
    </contour>
  </outline>
</glyph>
<glyph name="hadeva" format="1">
  <advance width="1238"/>
  <unicode hex="0939"/>
  <outline>
    <contour>
      <point x="748" y="1114" type="line"/>
      <point x="1034" y="1114" type="line"/>
      <point x="1034" y="741" type="line"/>
      <point x="492" y="741" type="line"/>
      <point x="387" y="741"/>
      <point x="349" y="699"/>
      <point x="349" y="643" type="curve" smooth="yes"/>
      <point x="349" y="587"/>
      <point x="401" y="541"/>
      <point x="501" y="515" type="curve"/>
      <point x="315" y="371" type="line"/>
      <point x="157" y="453"/>
      <point x="60" y="567"/>
      <point x="60" y="693" type="curve" smooth="yes"/>
      <point x="60" y="822"/>
      <point x="156" y="936"/>
      <point x="394" y="936" type="curve" smooth="yes"/>
      <point x="787" y="936" type="line"/>
      <point x="748" y="887" type="line"/>
    </contour>
    <contour>
      <point x="660" y="583" type="curve" smooth="yes"/>
      <point x="952" y="583"/>
      <point x="1135" y="428"/>
      <point x="1135" y="239" type="curve" smooth="yes"/>
      <point x="1135" y="166"/>
      <point x="1117" y="100"/>
      <point x="1086" y="48" type="curve"/>
      <point x="845" y="97" type="line"/>
      <point x="865" y="136"/>
      <point x="876" y="176"/>
      <point x="876" y="225" type="curve" smooth="yes"/>
      <point x="876" y="299"/>
      <point x="818" y="366"/>
      <point x="690" y="366" type="curve" smooth="yes"/>
      <point x="548" y="366"/>
      <point x="467" y="260"/>
      <point x="467" y="167" type="curve" smooth="yes"/>
      <point x="467" y="20"/>
      <point x="573" y="-81"/>
      <point x="1029" y="-132" type="curve"/>
      <point x="955" y="-329" type="line"/>
      <point x="408" y="-281"/>
      <point x="185" y="-71"/>
      <point x="185" y="189" type="curve" smooth="yes"/>
      <point x="185" y="409"/>
      <point x="358" y="583"/>
    </contour>
    <contour>
      <point x="1268" y="1096" type="line"/>
      <point x="-30" y="1096" type="line"/>
      <point x="-30" y="1289" type="line"/>
      <point x="1268" y="1289" type="line"/>
    </contour>
    <contour>
      <point x="748" y="1289" type="move" name="top"/>
    </contour>
  </outline>
</glyph>
<glyph name="iivowelsigndeva" format="1">
  <advance width="651"/>
  <unicode hex="0940"/>
  <outline>
    <contour>
      <point x="154" y="1239" type="line"/>
      <point x="64" y="1458"/>
      <point x="-61" y="1563"/>
      <point x="-186" y="1563" type="curve" smooth="yes"/>
      <point x="-267" y="1563"/>
      <point x="-310" y="1510"/>
      <point x="-310" y="1439" type="curve" smooth="yes"/>
      <point x="-310" y="1374"/>
      <point x="-276" y="1313"/>
      <point x="-224" y="1253" type="curve"/>
      <point x="-510" y="1253" type="line"/>
      <point x="-554" y="1329"/>
      <point x="-581" y="1407"/>
      <point x="-581" y="1506" type="curve" smooth="yes"/>
      <point x="-581" y="1653"/>
      <point x="-471" y="1808"/>
      <point x="-233" y="1808" type="curve" smooth="yes"/>
      <point x="65" y="1808"/>
      <point x="312" y="1604"/>
      <point x="446" y="1239" type="curve"/>
    </contour>
    <component base="aavowelsigndeva"/>
  </outline>
</glyph>
<glyph name="uuvowelsigndeva" format="1">
  <advance width="0"/>
  <unicode hex="0942"/>
  <outline>
    <contour>
      <point x="-120" y="-582" type="line"/>
      <point x="-190" y="-614"/>
      <point x="-259" y="-629"/>
      <point x="-357" y="-629" type="curve" smooth="yes"/>
      <point x="-584" y="-629"/>
      <point x="-771" y="-489"/>
      <point x="-771" y="-285" type="curve" smooth="yes"/>
      <point x="-771" y="-118"/>
      <point x="-635" y="32"/>
      <point x="-389" y="32" type="curve" smooth="yes"/>
      <point x="-133" y="32"/>
      <point x="71" y="-111"/>
      <point x="294" y="-388" type="curve"/>
      <point x="158" y="-544" type="line"/>
      <point x="-68" y="-275"/>
      <point x="-217" y="-198"/>
      <point x="-361" y="-198" type="curve" smooth="yes"/>
      <point x="-469" y="-198"/>
      <point x="-521" y="-256"/>
      <point x="-521" y="-323" type="curve" smooth="yes"/>
      <point x="-521" y="-385"/>
      <point x="-467" y="-429"/>
      <point x="-373" y="-429" type="curve" smooth="yes"/>
      <point x="-310" y="-429"/>
      <point x="-255" y="-416"/>
      <point x="-186" y="-387" type="curve"/>
    </contour>
    <contour>
      <point x="-493" y="0" type="move" name="_btm"/>
    </contour>
  </outline>
</glyph>
<glyph name="eshortvowelsigndeva" format="1">
  <advance width="0"/>
  <unicode hex="0946"/>
  <outline>
    <contour>
      <point x="-493" y="1244" type="line"/>
      <point x="-493" y="1341" type="line"/>
      <point x="-493" y="1413"/>
      <point x="-527" y="1455"/>
      <point x="-603" y="1455" type="curve" smooth="yes"/>
      <point x="-673" y="1455"/>
      <point x="-736" y="1416"/>
      <point x="-861" y="1416" type="curve" smooth="yes"/>
      <point x="-1002" y="1416"/>
      <point x="-1099" y="1479"/>
      <point x="-1189" y="1593" type="curve"/>
      <point x="-1085" y="1759" type="line"/>
      <point x="-994" y="1668"/>
      <point x="-937" y="1639"/>
      <point x="-868" y="1639" type="curve" smooth="yes"/>
      <point x="-766" y="1639"/>
      <point x="-670" y="1695"/>
      <point x="-518" y="1695" type="curve" smooth="yes"/>
      <point x="-347" y="1695"/>
      <point x="-237" y="1574"/>
      <point x="-237" y="1379" type="curve" smooth="yes"/>
      <point x="-237" y="1244" type="line"/>
    </contour>
    <contour>
      <point x="-493.0" y="1289.0" type="move" name="_top"/>
    </contour>
  </outline>
</glyph>
<glyph name="evowelsigndeva" format="1">
  <advance width="0"/>
  <unicode hex="0947"/>
  <outline>
    <contour>
      <point x="-534" y="1244" type="line"/>
      <point x="-982" y="1682" type="line"/>
      <point x="-772" y="1837" type="line"/>
      <point x="-203" y="1244" type="line"/>
    </contour>
    <contour>
      <point x="-493.0" y="1289.0" type="move" name="_top"/>
    </contour>
  </outline>
</glyph>
<glyph name="viramadeva" format="1">
  <advance width="0"/>
  <unicode hex="094D"/>
  <outline>
    <contour>
      <point x="-457" y="-60" type="line"/>
      <point x="121" y="-318" type="line"/>
      <point x="33" y="-521" type="line"/>
      <point x="-546" y="-262" type="line"/>
    </contour>
    <contour>
      <point x="-493" y="0" type="move" name="_btm"/>
    </contour>
  </outline>
</glyph>
<glyph name="candralongevowelsigndeva" format="1">
  <advance width="0"/>
  <unicode hex="0955"/>
  <outline>
    <component base="ecandravowelsigndeva" yScale="0.886405220775" xOffset="-295" yOffset="386"/>
    <component base="anudattadeva" xOffset="-20" yOffset="1676"/>
    <contour>
      <point x="-493" y="1289" type="move" name="_top"/>
    </contour>
  </outline>
</glyph>
<glyph name="rrvocalicdeva" format="1">
  <advance width="1778"/>
  <unicode hex="0960"/>
  <outline>
    <contour>
      <point x="1171" y="1096" type="line"/>
      <point x="1171" y="1289" type="line"/>
      <point x="1808" y="1289" type="line"/>
      <point x="1808" y="1096" type="line"/>
    </contour>
    <contour>
      <point x="924" y="732" type="line"/>
      <point x="981" y="702"/>
      <point x="1035" y="688"/>
      <point x="1097" y="688" type="curve" smooth="yes"/>
      <point x="1169" y="688"/>
      <point x="1249" y="705"/>
      <point x="1334" y="751" type="curve"/>
      <point x="1234" y="667" type="line"/>
      <point x="1204" y="711"/>
      <point x="1190" y="751"/>
      <point x="1190" y="791" type="curve" smooth="yes"/>
      <point x="1190" y="844"/>
      <point x="1235" y="889"/>
      <point x="1334" y="889" type="curve" smooth="yes"/>
      <point x="1488" y="889"/>
      <point x="1600" y="829"/>
      <point x="1600" y="737" type="curve" smooth="yes"/>
      <point x="1600" y="607"/>
      <point x="1401" y="459"/>
      <point x="1118" y="459" type="curve" smooth="yes"/>
      <point x="1022" y="459"/>
      <point x="942" y="476"/>
      <point x="843" y="512" type="curve"/>
    </contour>
    <contour>
      <point x="1465" y="179" type="curve" smooth="yes"/>
      <point x="1465" y="130"/>
      <point x="1502" y="102"/>
      <point x="1571" y="102" type="curve" smooth="yes"/>
      <point x="1620" y="102"/>
      <point x="1670" y="113"/>
      <point x="1729" y="135" type="curve"/>
      <point x="1767" y="-42" type="line"/>
      <point x="1691" y="-66"/>
      <point x="1631" y="-75"/>
      <point x="1560" y="-75" type="curve" smooth="yes"/>
      <point x="1350" y="-75"/>
      <point x="1205" y="40"/>
      <point x="1205" y="191" type="curve" smooth="yes"/>
      <point x="1205" y="314"/>
      <point x="1296" y="414"/>
      <point x="1512" y="468" type="curve"/>
      <point x="1401" y="397" type="line"/>
      <point x="1276" y="582" type="line"/>
      <point x="1471" y="684" type="line"/>
      <point x="1668" y="403" type="line"/>
      <point x="1643" y="324" type="line"/>
      <point x="1510" y="292"/>
      <point x="1465" y="236"/>
    </contour>
    <component base="taradeva"/>
  </outline>
</glyph>
<glyph name="llvocalicvowelsigndeva" format="1">
  <advance width="0"/>
  <unicode hex="0963"/>
  <outline>
    <contour>
      <point x="125" y="-701" type="line"/>
      <point x="84" y="-719"/>
      <point x="36" y="-729"/>
      <point x="-10" y="-729" type="curve" smooth="yes"/>
      <point x="-135" y="-729"/>
      <point x="-194" y="-663"/>
      <point x="-194" y="-589" type="curve" smooth="yes"/>
      <point x="-194" y="-506"/>
      <point x="-114" y="-445"/>
      <point x="15" y="-445" type="curve"/>
      <point x="38" y="-520" type="line"/>
      <point x="-32" y="-520"/>
      <point x="-55" y="-555"/>
      <point x="-55" y="-585" type="curve" smooth="yes"/>
      <point x="-55" y="-611"/>
      <point x="-31" y="-630"/>
      <point x="9" y="-630" type="curve" smooth="yes"/>
      <point x="43" y="-630"/>
      <point x="69" y="-624"/>
      <point x="109" y="-609" type="curve"/>
    </contour>
    <contour>
      <point x="-282" y="-87" type="curve"/>
      <point x="-393" y="-185" type="line"/>
      <point x="-441" y="-116"/>
      <point x="-492" y="-82"/>
      <point x="-546" y="-82" type="curve" smooth="yes"/>
      <point x="-602" y="-82"/>
      <point x="-638" y="-124"/>
      <point x="-638" y="-173" type="curve" smooth="yes"/>
      <point x="-638" y="-226"/>
      <point x="-610" y="-275"/>
      <point x="-510" y="-353" type="curve"/>
      <point x="-636" y="-438" type="line"/>
      <point x="-758" y="-347"/>
      <point x="-818" y="-249"/>
      <point x="-818" y="-140" type="curve" smooth="yes"/>
      <point x="-818" y="-18"/>
      <point x="-731" y="79"/>
      <point x="-582" y="79" type="curve" smooth="yes"/>
      <point x="-458" y="79"/>
      <point x="-369" y="23"/>
    </contour>
    <contour>
      <point x="-84" y="-239" type="curve"/>
      <point x="-163" y="-295" type="line"/>
      <point x="-122" y="-247"/>
      <point x="-102" y="-206"/>
      <point x="-102" y="-162" type="curve" smooth="yes"/>
      <point x="-102" y="-121"/>
      <point x="-129" y="-88"/>
      <point x="-178" y="-88" type="curve" smooth="yes"/>
      <point x="-246" y="-88"/>
      <point x="-300" y="-168"/>
      <point x="-327" y="-287" type="curve"/>
      <point x="-488" y="-233" type="line"/>
      <point x="-452" y="-50"/>
      <point x="-351" y="72"/>
      <point x="-186" y="72" type="curve" smooth="yes"/>
      <point x="-36" y="72"/>
      <point x="63" y="-24"/>
      <point x="63" y="-154" type="curve" smooth="yes"/>
      <point x="63" y="-219"/>
      <point x="42" y="-291"/>
      <point x="11" y="-338" type="curve"/>
      <point x="-12" y="-338" type="line"/>
      <point x="-85" y="-338"/>
      <point x="-116" y="-367"/>
      <point x="-116" y="-396" type="curve" smooth="yes"/>
      <point x="-116" y="-424"/>
      <point x="-86" y="-442"/>
      <point x="-38" y="-442" type="curve" smooth="yes"/>
      <point x="-6" y="-442"/>
      <point x="24" y="-437"/>
      <point x="64" y="-423" type="curve"/>
      <point x="82" y="-524" type="line"/>
      <point x="40" y="-540"/>
      <point x="-6" y="-548"/>
      <point x="-50" y="-548" type="curve" smooth="yes"/>
      <point x="-193" y="-548"/>
      <point x="-269" y="-471"/>
      <point x="-269" y="-387" type="curve" smooth="yes"/>
      <point x="-269" y="-309"/>
      <point x="-208" y="-248"/>
    </contour>
    <contour>
      <point x="-493" y="0" type="move" name="_btm"/>
    </contour>
  </outline>
</glyph>
<glyph name="jjyadeva" format="1">
  <advance width="1372"/>
  <unicode hex="097A"/>
  <outline>
    <contour>
      <point x="-30" y="1096" type="line"/>
      <point x="-30" y="1289" type="line"/>
      <point x="1402" y="1289" type="line"/>
      <point x="1402" y="1096" type="line"/>
    </contour>
    <contour>
      <point x="339" y="1131" type="line"/>
      <point x="611" y="1131" type="line"/>
      <point x="611" y="949" type="line"/>
      <point x="611" y="732"/>
      <point x="519" y="602"/>
      <point x="301" y="532" type="curve"/>
      <point x="310" y="632" type="line"/>
      <point x="378" y="532"/>
      <point x="486" y="466"/>
      <point x="608" y="466" type="curve" smooth="yes"/>
      <point x="756" y="466"/>
      <point x="864" y="531"/>
      <point x="928" y="657" type="curve"/>
      <point x="928" y="297" type="line"/>
      <point x="870" y="247"/>
      <point x="790" y="223"/>
      <point x="683" y="223" type="curve" smooth="yes"/>
      <point x="412" y="223"/>
      <point x="160" y="380"/>
      <point x="24" y="641" type="curve"/>
      <point x="37" y="667" type="line"/>
      <point x="258" y="740"/>
      <point x="339" y="826"/>
      <point x="339" y="969" type="curve" smooth="yes"/>
    </contour>
    <contour>
      <point x="881" y="1132" type="line"/>
      <point x="1167" y="1132" type="line"/>
      <point x="1167" y="0" type="line"/>
      <point x="881" y="0" type="line"/>
    </contour>
    <contour>
      <point x="1010" y="528" type="line"/>
      <point x="874" y="442" type="line"/>
      <point x="409" y="1099" type="line"/>
      <point x="550" y="1186" type="line"/>
    </contour>
    <contour>
      <point x="881" y="1289" type="move" name="top"/>
    </contour>
  </outline>
</glyph>
<glyph name="emdash" format="1">
  <advance width="1923"/>
  <unicode hex="2014"/>
  <outline>
    <contour>
      <point x="115" y="472" type="line"/>
      <point x="115" y="697" type="line"/>
      <point x="1808" y="697" type="line"/>
      <point x="1808" y="472" type="line"/>
    </contour>
  </outline>
</glyph>
<glyph name="afii00208" format="1">
  <advance width="1923"/>
  <unicode hex="2015"/>
  <outline>
    <contour>
      <point x="115" y="472" type="line"/>
      <point x="115" y="697" type="line"/>
      <point x="1808" y="697" type="line"/>
      <point x="1808" y="472" type="line"/>
    </contour>
  </outline>
</glyph>
<glyph name="quoteright" format="1">
  <advance width="676"/>
  <unicode hex="2019"/>
  <outline>
    <contour>
      <point x="503" y="1316" type="line"/>
      <point x="516" y="1296" type="line"/>
      <point x="486" y="1178"/>
      <point x="433" y="1034"/>
      <point x="358" y="865" type="curve"/>
      <point x="160" y="865" type="line"/>
      <point x="202" y="1042"/>
      <point x="232" y="1193"/>
      <point x="250" y="1316" type="curve"/>
    </contour>
  </outline>
</glyph>
<glyph name="quotedblleft" format="1">
  <advance width="1096"/>
  <unicode hex="201C"/>
  <outline>
    <contour>
      <point x="581" y="885" type="line"/>
      <point x="594" y="940"/>
      <point x="616" y="1008"/>
      <point x="646" y="1090" type="curve" smooth="yes"/>
      <point x="676" y="1173"/>
      <point x="707" y="1248"/>
      <point x="739" y="1316" type="curve"/>
      <point x="936" y="1316" type="line"/>
      <point x="897" y="1155"/>
      <point x="866" y="1005"/>
      <point x="845" y="865" type="curve"/>
      <point x="593" y="865" type="line"/>
    </contour>
    <contour>
      <point x="160" y="885" type="line"/>
      <point x="173" y="940"/>
      <point x="195" y="1008"/>
      <point x="225" y="1090" type="curve" smooth="yes"/>
      <point x="256" y="1173"/>
      <point x="287" y="1248"/>
      <point x="319" y="1316" type="curve"/>
      <point x="516" y="1316" type="line"/>
      <point x="477" y="1155"/>
      <point x="446" y="1005"/>
      <point x="425" y="865" type="curve"/>
      <point x="173" y="865" type="line"/>
    </contour>
  </outline>
</glyph>
<glyph name="quotedblright" format="1">
  <advance width="1096"/>
  <unicode hex="201D"/>
  <outline>
    <contour>
      <point x="516" y="1296" type="line"/>
      <point x="486" y="1178"/>
      <point x="433" y="1034"/>
      <point x="358" y="865" type="curve"/>
      <point x="160" y="865" type="line"/>
      <point x="202" y="1042"/>
      <point x="232" y="1193"/>
      <point x="250" y="1316" type="curve"/>
      <point x="503" y="1316" type="line"/>
    </contour>
    <contour>
      <point x="936" y="1296" type="line"/>
      <point x="906" y="1178"/>
      <point x="853" y="1034"/>
      <point x="778" y="865" type="curve"/>
      <point x="581" y="865" type="line"/>
      <point x="622" y="1042"/>
      <point x="652" y="1193"/>
      <point x="671" y="1316" type="curve"/>
      <point x="923" y="1316" type="line"/>
    </contour>
  </outline>
</glyph>
<glyph name="bullet" format="1">
  <advance width="693"/>
  <unicode hex="2022"/>
  <outline>
    <contour>
      <point x="88" y="673" type="curve" smooth="yes"/>
      <point x="88" y="858"/>
      <point x="179" y="958"/>
      <point x="346" y="958" type="curve" smooth="yes"/>
      <point x="511" y="958"/>
      <point x="605" y="857"/>
      <point x="605" y="673" type="curve" smooth="yes"/>
      <point x="605" y="490"/>
      <point x="510" y="387"/>
      <point x="346" y="387" type="curve" smooth="yes"/>
      <point x="181" y="387"/>
      <point x="88" y="490"/>
    </contour>
  </outline>
</glyph>
<glyph name="uni20B9.deva" format="1">
  <advance width="1231"/>
  <unicode hex="20B9"/>
  <outline>
    <contour>
      <point x="135" y="753" type="line"/>
      <point x="135" y="939" type="line"/>
      <point x="1060" y="939" type="line"/>
      <point x="1060" y="753" type="line"/>
    </contour>
    <contour>
      <point x="135" y="1103" type="line"/>
      <point x="135" y="1289" type="line"/>
      <point x="1060" y="1289" type="line"/>
      <point x="1060" y="1103" type="line"/>
    </contour>
    <contour>
      <point x="183" y="479" type="line"/>
      <point x="186" y="565" type="line"/>
      <point x="466" y="580"/>
      <point x="592" y="700"/>
      <point x="592" y="859" type="curve" smooth="yes"/>
      <point x="592" y="1002"/>
      <point x="480" y="1104"/>
      <point x="332" y="1104" type="curve" smooth="yes"/>
      <point x="312" y="1104" type="line"/>
      <point x="314" y="1259" type="line"/>
      <point x="390" y="1259" type="line"/>
      <point x="680" y="1259"/>
      <point x="870" y="1069"/>
      <point x="870" y="845" type="curve" smooth="yes"/>
      <point x="870" y="621"/>
      <point x="717" y="474"/>
      <point x="478" y="405" type="curve"/>
      <point x="479" y="489" type="line"/>
      <point x="885" y="15" type="line"/>
      <point x="886" y="0" type="line"/>
      <point x="587" y="0" type="line"/>
    </contour>
  </outline>
</glyph>
<glyph name="uni20B9.deva" format="1">
  <advance width="1222"/>
  <unicode hex="20B9"/>
  <outline>
    <contour>
      <point x="136" y="756" type="line"/>
      <point x="136" y="936" type="line"/>
      <point x="1053" y="936" type="line"/>
      <point x="1053" y="756" type="line"/>
    </contour>
    <contour>
      <point x="136" y="1109" type="line"/>
      <point x="136" y="1289" type="line"/>
      <point x="1053" y="1289" type="line"/>
      <point x="1053" y="1109" type="line"/>
    </contour>
    <contour>
      <point x="186" y="479" type="line"/>
      <point x="189" y="565" type="line"/>
      <point x="469" y="580"/>
      <point x="596" y="698"/>
      <point x="596" y="860" type="curve" smooth="yes"/>
      <point x="596" y="1004"/>
      <point x="482" y="1109"/>
      <point x="331" y="1109" type="curve" smooth="yes"/>
      <point x="311" y="1109" type="line"/>
      <point x="314" y="1260" type="line"/>
      <point x="386" y="1260" type="line"/>
      <point x="672" y="1260"/>
      <point x="863" y="1071"/>
      <point x="863" y="847" type="curve" smooth="yes"/>
      <point x="863" y="623"/>
      <point x="708" y="475"/>
      <point x="468" y="409" type="curve"/>
      <point x="470" y="491" type="line"/>
      <point x="875" y="14" type="line"/>
      <point x="876" y="0" type="line"/>
      <point x="589" y="0" type="line"/>
    </contour>
  </outline>
</glyph>
<glyph name="aivowelsigncandrabindudeva" format="1">
  <advance width="0"/>
  <outline>
    <component base="aivowelsigndeva"/>
    <component base="candrabindusmalldeva" xOffset="257" yOffset="1"/>
    <contour>
      <point x="-493" y="1289" type="move" name="_top"/>
    </contour>
  </outline>
</glyph>
<glyph name="anusvaradeva2" format="1">
  <advance width="0"/>
  <outline>
    <contour>
      <point x="-68" y="1737" type="curve" smooth="yes"/>
      <point x="30" y="1737"/>
      <point x="75" y="1671"/>
      <point x="75" y="1607" type="curve" smooth="yes"/>
      <point x="75" y="1543"/>
      <point x="30" y="1475"/>
      <point x="-68" y="1475" type="curve" smooth="yes"/>
      <point x="-161" y="1475"/>
      <point x="-210" y="1540"/>
      <point x="-210" y="1607" type="curve" smooth="yes"/>
      <point x="-210" y="1672"/>
      <point x="-162" y="1737"/>
    </contour>
    <contour>
      <point x="-493" y="1289" type="move" name="_top"/>
    </contour>
  </outline>
</glyph>
<glyph name="dadhadeva" format="1">
  <advance width="1524"/>
  <outline>
    <contour>
      <point x="570" y="19" type="line"/>
      <point x="513" y="-14"/>
      <point x="463" y="-28"/>
      <point x="349" y="-28" type="curve" smooth="yes"/>
      <point x="112" y="-28"/>
      <point x="-50" y="118"/>
      <point x="-50" y="311" type="curve" smooth="yes"/>
      <point x="-50" y="458"/>
      <point x="48" y="571"/>
      <point x="188" y="571" type="curve" smooth="yes"/>
      <point x="341" y="571"/>
      <point x="429" y="475"/>
      <point x="429" y="339" type="curve" smooth="yes"/>
      <point x="429" y="226"/>
      <point x="345" y="131"/>
      <point x="222" y="101" type="curve"/>
      <point x="101" y="168" type="line"/>
      <point x="198" y="202"/>
      <point x="263" y="269"/>
      <point x="263" y="333" type="curve" smooth="yes"/>
      <point x="263" y="374"/>
      <point x="244" y="398"/>
      <point x="207" y="398" type="curve" smooth="yes"/>
      <point x="172" y="398"/>
      <point x="145" y="361"/>
      <point x="145" y="306" type="curve" smooth="yes"/>
      <point x="145" y="219"/>
      <point x="250" y="151"/>
      <point x="362" y="151" type="curve" smooth="yes"/>
      <point x="465" y="151"/>
      <point x="526" y="169"/>
      <point x="603" y="219" type="curve"/>
    </contour>
    <contour>
      <point x="833" y="118" type="line"/>
      <point x="708" y="69"/>
      <point x="668" y="-17"/>
      <point x="667" y="-72" type="curve" smooth="yes"/>
      <point x="667" y="-131"/>
      <point x="705" y="-173"/>
      <point x="778" y="-173" type="curve" smooth="yes"/>
      <point x="912" y="-173"/>
      <point x="1037" y="-23"/>
      <point x="1031" y="197" type="curve"/>
      <point x="1201" y="-119" type="line"/>
      <point x="1109" y="-279"/>
      <point x="965" y="-377"/>
      <point x="779" y="-377" type="curve" smooth="yes"/>
      <point x="568" y="-377"/>
      <point x="447" y="-232"/>
      <point x="447" y="-78" type="curve" smooth="yes"/>
      <point x="447" y="31"/>
      <point x="489" y="163"/>
      <point x="670" y="269" type="curve"/>
    </contour>
    <contour>
      <point x="-30" y="1096" type="line"/>
      <point x="-30" y="1289" type="line"/>
      <point x="1554" y="1289" type="line"/>
      <point x="1554" y="1096" type="line"/>
    </contour>
    <contour>
      <point x="1018" y="184" type="line"/>
      <point x="1237" y="254" type="line"/>
      <point x="1490" y="-224" type="line"/>
      <point x="1280" y="-312" type="line"/>
    </contour>
    <contour>
      <point x="999" y="75" type="curve" smooth="yes"/>
      <point x="635" y="75"/>
      <point x="405" y="270"/>
      <point x="405" y="527" type="curve" smooth="yes"/>
      <point x="405" y="733"/>
      <point x="545" y="904"/>
      <point x="879" y="904" type="curve" smooth="yes"/>
      <point x="1087" y="904" type="line"/>
      <point x="1025" y="850" type="line"/>
      <point x="1025" y="1131" type="line"/>
      <point x="1311" y="1131" type="line"/>
      <point x="1311" y="699" type="line"/>
      <point x="979" y="699" type="line"/>
      <point x="761" y="699"/>
      <point x="678" y="603"/>
      <point x="678" y="486" type="curve" smooth="yes"/>
      <point x="678" y="368"/>
      <point x="789" y="281"/>
      <point x="939" y="281" type="curve" smooth="yes"/>
      <point x="1025" y="281"/>
      <point x="1081" y="288"/>
      <point x="1179" y="320" type="curve"/>
      <point x="997" y="224" type="line"/>
      <point x="966" y="277"/>
      <point x="945" y="320"/>
      <point x="945" y="371" type="curve" smooth="yes"/>
      <point x="946" y="430"/>
      <point x="993" y="488"/>
      <point x="1112" y="488" type="curve" smooth="yes"/>
      <point x="1282" y="488"/>
      <point x="1430" y="406"/>
      <point x="1430" y="311" type="curve" smooth="yes"/>
      <point x="1430" y="212"/>
      <point x="1298" y="75"/>
    </contour>
    <contour>
      <point x="965" y="-422" type="move" name="btm"/>
    </contour>
    <contour>
      <point x="984" y="1289" type="move" name="top"/>
    </contour>
  </outline>
</glyph>
<glyph name="dayadeva" format="1">
  <advance width="1575"/>
  <outline>
    <contour>
      <point x="480" y="1138" type="line"/>
      <point x="766" y="1138" type="line"/>
      <point x="766" y="862" type="line"/>
      <point x="480" y="862" type="line"/>
    </contour>
    <contour>
      <point x="447" y="363" type="line"/>
      <point x="207" y="421"/>
      <point x="62" y="545"/>
      <point x="62" y="708" type="curve" smooth="yes"/>
      <point x="62" y="847"/>
      <point x="170" y="947"/>
      <point x="399" y="947" type="curve" smooth="yes"/>
      <point x="477" y="947"/>
      <point x="706" y="947"/>
      <point x="766" y="947" type="curve"/>
      <point x="766" y="769" type="line"/>
      <point x="725" y="769"/>
      <point x="544" y="769"/>
      <point x="513" y="769" type="curve"/>
      <point x="396" y="769"/>
      <point x="343" y="729"/>
      <point x="343" y="668" type="curve" smooth="yes"/>
      <point x="343" y="604"/>
      <point x="426" y="552"/>
      <point x="585" y="539" type="curve"/>
    </contour>
    <contour>
      <point x="1084" y="1131" type="line"/>
      <point x="1370" y="1131" type="line"/>
      <point x="1370" y="-58" type="line"/>
      <point x="1084" y="-58" type="line"/>
    </contour>
    <contour>
      <point x="1605" y="1096" type="line"/>
      <point x="-30" y="1096" type="line"/>
      <point x="-30" y="1289" type="line"/>
      <point x="1605" y="1289" type="line"/>
    </contour>
    <contour>
      <point x="907" y="438" type="line"/>
      <point x="897" y="438" type="line"/>
      <point x="716" y="438"/>
      <point x="636" y="381"/>
      <point x="636" y="318" type="curve" smooth="yes"/>
      <point x="636" y="263"/>
      <point x="685" y="219"/>
      <point x="775" y="219" type="curve" smooth="yes"/>
      <point x="917" y="219"/>
      <point x="1071" y="301"/>
      <point x="1145" y="469" type="curve"/>
      <point x="1145" y="101" type="line"/>
      <point x="1051" y="47"/>
      <point x="934" y="12"/>
      <point x="784" y="12" type="curve" smooth="yes"/>
      <point x="520" y="12"/>
      <point x="362" y="165"/>
      <point x="362" y="348" type="curve" smooth="yes"/>
      <point x="362" y="511"/>
      <point x="503" y="636"/>
      <point x="835" y="636" type="curve" smooth="yes"/>
      <point x="844" y="636" type="line"/>
    </contour>
    <contour>
      <point x="1084" y="-58" type="move" name="btm"/>
    </contour>
    <contour>
      <point x="1084" y="1289" type="move" name="top"/>
    </contour>
  </outline>
</glyph>
<glyph name="ddaddhadeva" format="1">
  <advance width="1229"/>
  <outline>
    <contour>
      <point x="620" y="225" type="line"/>
      <point x="900" y="225" type="line"/>
      <point x="900" y="-122" type="line"/>
      <point x="601" y="-122" type="line"/>
      <point x="384" y="-122"/>
      <point x="309" y="-205"/>
      <point x="309" y="-307" type="curve" smooth="yes"/>
      <point x="309" y="-421"/>
      <point x="436" y="-505"/>
      <point x="660" y="-505" type="curve" smooth="yes"/>
      <point x="842" y="-505"/>
      <point x="895" y="-465"/>
      <point x="895" y="-422" type="curve" smooth="yes"/>
      <point x="895" y="-383"/>
      <point x="858" y="-357"/>
      <point x="787" y="-357" type="curve" smooth="yes"/>
      <point x="705" y="-357"/>
      <point x="644" y="-404"/>
      <point x="644" y="-463" type="curve" smooth="yes"/>
      <point x="644" y="-510"/>
      <point x="660" y="-550"/>
      <point x="686" y="-587" type="curve"/>
      <point x="475" y="-604" type="line"/>
      <point x="443" y="-545"/>
      <point x="430" y="-496"/>
      <point x="430" y="-427" type="curve" smooth="yes"/>
      <point x="430" y="-331"/>
      <point x="538" y="-213"/>
      <point x="775" y="-213" type="curve" smooth="yes"/>
      <point x="1007" y="-213"/>
      <point x="1096" y="-315"/>
      <point x="1096" y="-424" type="curve" smooth="yes"/>
      <point x="1096" y="-551"/>
      <point x="968" y="-663"/>
      <point x="668" y="-663" type="curve" smooth="yes"/>
      <point x="268" y="-663"/>
      <point x="53" y="-461"/>
      <point x="53" y="-258" type="curve" smooth="yes"/>
      <point x="53" y="-95"/>
      <point x="175" y="62"/>
      <point x="517" y="62" type="curve" smooth="yes"/>
      <point x="661" y="62" type="line"/>
      <point x="620" y="25" type="line"/>
    </contour>
    <contour>
      <point x="1259" y="1096" type="line"/>
      <point x="-30" y="1096" type="line"/>
      <point x="-30" y="1289" type="line"/>
      <point x="1259" y="1289" type="line"/>
    </contour>
    <contour>
      <point x="713" y="1121" type="line"/>
      <point x="999" y="1121" type="line"/>
      <point x="999" y="786" type="line"/>
      <point x="515" y="786" type="line"/>
      <point x="420" y="786"/>
      <point x="385" y="752"/>
      <point x="385" y="709" type="curve" smooth="yes"/>
      <point x="385" y="666"/>
      <point x="417" y="637"/>
      <point x="491" y="614" type="curve"/>
      <point x="389" y="627" type="line"/>
      <point x="482" y="669"/>
      <point x="591" y="695"/>
      <point x="715" y="695" type="curve" smooth="yes"/>
      <point x="970" y="695"/>
      <point x="1109" y="581"/>
      <point x="1109" y="424" type="curve" smooth="yes"/>
      <point x="1109" y="255"/>
      <point x="983" y="137"/>
      <point x="653" y="137" type="curve" smooth="yes"/>
      <point x="473" y="137"/>
      <point x="300" y="175"/>
      <point x="92" y="266" type="curve"/>
      <point x="140" y="463" type="line"/>
      <point x="338" y="365"/>
      <point x="489" y="329"/>
      <point x="622" y="329" type="curve" smooth="yes"/>
      <point x="790" y="329"/>
      <point x="849" y="376"/>
      <point x="849" y="426" type="curve" smooth="yes"/>
      <point x="849" y="473"/>
      <point x="804" y="507"/>
      <point x="699" y="507" type="curve" smooth="yes"/>
      <point x="608" y="507"/>
      <point x="518" y="481"/>
      <point x="447" y="447" type="curve"/>
      <point x="437" y="447" type="line"/>
      <point x="235" y="524"/>
      <point x="137" y="635"/>
      <point x="137" y="752" type="curve" smooth="yes"/>
      <point x="137" y="853"/>
      <point x="222" y="963"/>
      <point x="456" y="963" type="curve" smooth="yes"/>
      <point x="773" y="963" type="line"/>
      <point x="713" y="902" type="line"/>
    </contour>
    <contour>
      <point x="487.0" y="-653.0" type="move" name="btm"/>
    </contour>
    <contour>
      <point x="690.0" y="1289.0" type="move" name="top"/>
    </contour>
  </outline>
</glyph>
<glyph name="ddhaddhadeva" format="1">
  <advance width="1230"/>
  <outline>
    <contour>
      <point x="1260" y="1096" type="line"/>
      <point x="-30" y="1096" type="line"/>
      <point x="-30" y="1289" type="line"/>
      <point x="1260" y="1289" type="line"/>
    </contour>
    <contour>
      <point x="716" y="1126" type="line"/>
      <point x="1002" y="1126" type="line"/>
      <point x="1002" y="761" type="line"/>
      <point x="655" y="761" type="line"/>
      <point x="408" y="761"/>
      <point x="334" y="664"/>
      <point x="334" y="551" type="curve" smooth="yes"/>
      <point x="334" y="429"/>
      <point x="486" y="325"/>
      <point x="707" y="325" type="curve" smooth="yes"/>
      <point x="873" y="325"/>
      <point x="950" y="376"/>
      <point x="950" y="428" type="curve" smooth="yes"/>
      <point x="950" y="472"/>
      <point x="909" y="497"/>
      <point x="839" y="497" type="curve" smooth="yes"/>
      <point x="757" y="497"/>
      <point x="701" y="447"/>
      <point x="701" y="384" type="curve" smooth="yes"/>
      <point x="701" y="337"/>
      <point x="720" y="297"/>
      <point x="740" y="259" type="curve"/>
      <point x="532" y="236" type="line"/>
      <point x="491" y="295"/>
      <point x="477" y="346"/>
      <point x="477" y="414" type="curve" smooth="yes"/>
      <point x="477" y="539"/>
      <point x="602" y="662"/>
      <point x="831" y="662" type="curve" smooth="yes"/>
      <point x="1057" y="662"/>
      <point x="1176" y="550"/>
      <point x="1176" y="420" type="curve" smooth="yes"/>
      <point x="1176" y="278"/>
      <point x="1020" y="162"/>
      <point x="715" y="162" type="curve" smooth="yes"/>
      <point x="294" y="162"/>
      <point x="72" y="381"/>
      <point x="72" y="607" type="curve" smooth="yes"/>
      <point x="72" y="790"/>
      <point x="210" y="958"/>
      <point x="565" y="958" type="curve" smooth="yes"/>
      <point x="758" y="958" type="line"/>
      <point x="716" y="924" type="line"/>
    </contour>
    <contour>
      <point x="632" y="225" type="line"/>
      <point x="911" y="225" type="line"/>
      <point x="911" y="-122" type="line"/>
      <point x="617" y="-122" type="line"/>
      <point x="400" y="-122"/>
      <point x="324" y="-205"/>
      <point x="324" y="-307" type="curve" smooth="yes"/>
      <point x="324" y="-421"/>
      <point x="448" y="-505"/>
      <point x="671" y="-505" type="curve" smooth="yes"/>
      <point x="854" y="-505"/>
      <point x="906" y="-467"/>
      <point x="906" y="-425" type="curve" smooth="yes"/>
      <point x="906" y="-386"/>
      <point x="870" y="-357"/>
      <point x="799" y="-357" type="curve" smooth="yes"/>
      <point x="718" y="-357"/>
      <point x="657" y="-404"/>
      <point x="657" y="-463" type="curve" smooth="yes"/>
      <point x="657" y="-510"/>
      <point x="673" y="-550"/>
      <point x="700" y="-587" type="curve"/>
      <point x="488" y="-604" type="line"/>
      <point x="455" y="-545"/>
      <point x="443" y="-496"/>
      <point x="443" y="-427" type="curve" smooth="yes"/>
      <point x="443" y="-328"/>
      <point x="546" y="-212"/>
      <point x="781" y="-212" type="curve" smooth="yes"/>
      <point x="1020" y="-212"/>
      <point x="1114" y="-322"/>
      <point x="1114" y="-431" type="curve" smooth="yes"/>
      <point x="1114" y="-558"/>
      <point x="994" y="-664"/>
      <point x="680" y="-664" type="curve" smooth="yes"/>
      <point x="280" y="-664"/>
      <point x="68" y="-461"/>
      <point x="68" y="-258" type="curve" smooth="yes"/>
      <point x="68" y="-95"/>
      <point x="191" y="62"/>
      <point x="532" y="62" type="curve" smooth="yes"/>
      <point x="673" y="62" type="line"/>
      <point x="632" y="25" type="line"/>
    </contour>
    <contour>
      <point x="487" y="-659" type="move" name="btm"/>
    </contour>
    <contour>
      <point x="687" y="1289" type="move" name="top"/>
    </contour>
  </outline>
</glyph>
<glyph name="dhaprehalfdeva" format="1">
  <advance width="937"/>
  <outline>
    <contour>
      <point x="1123" y="639" type="curve"/>
      <point x="1262" y="428" type="line"/>
      <point x="1113" y="252"/>
      <point x="959" y="140"/>
      <point x="713" y="140" type="curve" smooth="yes"/>
      <point x="434" y="140"/>
      <point x="271" y="328"/>
      <point x="271" y="528" type="curve" smooth="yes"/>
      <point x="271" y="706"/>
      <point x="398" y="885"/>
      <point x="706" y="885" type="curve" smooth="yes"/>
      <point x="751" y="885" type="line"/>
      <point x="801" y="659" type="line"/>
      <point x="783" y="659" type="line"/>
      <point x="601" y="659"/>
      <point x="534" y="580"/>
      <point x="534" y="505" type="curve" smooth="yes"/>
      <point x="534" y="437"/>
      <point x="594" y="387"/>
      <point x="683" y="387" type="curve" smooth="yes"/>
      <point x="833" y="387"/>
      <point x="997" y="476"/>
    </contour>
    <contour>
      <point x="354" y="686" type="line"/>
      <point x="234" y="712"/>
      <point x="136" y="762"/>
      <point x="68" y="830" type="curve" smooth="yes"/>
      <point x="-1" y="898"/>
      <point x="-39" y="986"/>
      <point x="-39" y="1083" type="curve" smooth="yes"/>
      <point x="-39" y="1246"/>
      <point x="80" y="1385"/>
      <point x="299" y="1385" type="curve" smooth="yes"/>
      <point x="522" y="1385"/>
      <point x="648" y="1246"/>
      <point x="648" y="1089" type="curve" smooth="yes"/>
      <point x="648" y="921"/>
      <point x="494" y="799"/>
      <point x="286" y="799" type="curve"/>
      <point x="194" y="945" type="line"/>
      <point x="346" y="945"/>
      <point x="425" y="1019"/>
      <point x="425" y="1101" type="curve" smooth="yes"/>
      <point x="425" y="1153"/>
      <point x="388" y="1190"/>
      <point x="326" y="1190" type="curve" smooth="yes"/>
      <point x="252" y="1190"/>
      <point x="200" y="1128"/>
      <point x="200" y="1061" type="curve" smooth="yes"/>
      <point x="200" y="1022"/>
      <point x="213" y="987"/>
      <point x="244" y="956" type="curve" smooth="yes"/>
      <point x="297" y="903"/>
      <point x="402" y="865"/>
      <point x="582" y="856" type="curve"/>
    </contour>
  </outline>
</glyph>
<glyph name="eshortvowelsignrephdeva" format="1">
  <advance width="0"/>
  <outline>
    <contour>
      <point x="-416" y="1244" type="line"/>
      <point x="-452" y="1323"/>
      <point x="-507" y="1425"/>
      <point x="-507" y="1523" type="curve" smooth="yes"/>
      <point x="-507" y="1711"/>
      <point x="-349" y="1827"/>
      <point x="-111" y="1827" type="curve" smooth="yes"/>
      <point x="-47" y="1827"/>
      <point x="6" y="1820"/>
      <point x="56" y="1806" type="curve"/>
      <point x="45" y="1640" type="line"/>
      <point x="17" y="1645"/>
      <point x="-17" y="1649"/>
      <point x="-54" y="1649" type="curve" smooth="yes"/>
      <point x="-178" y="1649"/>
      <point x="-236" y="1577"/>
      <point x="-236" y="1459" type="curve" smooth="yes"/>
      <point x="-236" y="1244" type="line"/>
    </contour>
    <component base="eshortvowelsigndeva"/>
    <contour>
      <point x="-493" y="1289" type="move" name="_top"/>
    </contour>
  </outline>
</glyph>
<glyph name="evowelsignanusvaradeva" format="1">
  <advance width="0"/>
  <outline>
    <component base="evowelsigndeva"/>
    <component base="anusvaradeva" xOffset="177"/>
    <contour>
      <point x="-493" y="1289" type="move" name="_top"/>
    </contour>
  </outline>
</glyph>
<glyph name="hamadeva" format="1">
  <advance width="1865"/>
  <outline>
    <contour>
      <point x="431" y="122" type="curve" smooth="yes"/>
      <point x="431" y="-19"/>
      <point x="517" y="-138"/>
      <point x="778" y="-301" type="curve"/>
      <point x="603" y="-444" type="line"/>
      <point x="312" y="-284"/>
      <point x="167" y="-62"/>
      <point x="167" y="168" type="curve" smooth="yes"/>
      <point x="167" y="398"/>
      <point x="346" y="592"/>
      <point x="638" y="592" type="curve" smooth="yes"/>
      <point x="957" y="592"/>
      <point x="1117" y="409"/>
      <point x="1117" y="197" type="curve" smooth="yes"/>
      <point x="1117" y="132" type="line"/>
      <point x="1050" y="230" type="line"/>
      <point x="1443" y="230" type="line"/>
      <point x="1443" y="5" type="line"/>
      <point x="1072" y="5" type="line"/>
      <point x="1118" y="48" type="line"/>
      <point x="1118" y="-74" type="line" smooth="yes"/>
      <point x="1118" y="-149"/>
      <point x="1084" y="-193"/>
      <point x="1012" y="-193" type="curve" smooth="yes"/>
      <point x="955" y="-193"/>
      <point x="875" y="-150"/>
      <point x="807" y="-85" type="curve" smooth="yes"/>
      <point x="741" y="-21"/>
      <point x="692" y="57"/>
      <point x="692" y="124" type="curve" smooth="yes"/>
      <point x="692" y="187"/>
      <point x="733" y="230"/>
      <point x="808" y="230" type="curve" smooth="yes"/>
      <point x="897" y="230" type="line"/>
      <point x="856" y="175" type="line"/>
      <point x="856" y="232" type="line"/>
      <point x="856" y="310"/>
      <point x="791" y="368"/>
      <point x="668" y="368" type="curve" smooth="yes"/>
      <point x="520" y="368"/>
      <point x="431" y="262"/>
    </contour>
    <contour>
      <point x="781" y="1114" type="line"/>
      <point x="1067" y="1114" type="line"/>
      <point x="1067" y="741" type="line"/>
      <point x="491" y="741" type="line"/>
      <point x="391" y="741"/>
      <point x="349" y="697"/>
      <point x="349" y="641" type="curve" smooth="yes"/>
      <point x="349" y="583"/>
      <point x="401" y="541"/>
      <point x="501" y="515" type="curve"/>
      <point x="309" y="367" type="line"/>
      <point x="150" y="455"/>
      <point x="67" y="563"/>
      <point x="67" y="696" type="curve" smooth="yes"/>
      <point x="67" y="826"/>
      <point x="170" y="936"/>
      <point x="378" y="936" type="curve" smooth="yes"/>
      <point x="820" y="936" type="line"/>
      <point x="781" y="887" type="line"/>
    </contour>
    <contour>
      <point x="-30" y="1096" type="line"/>
      <point x="-30" y="1289" type="line"/>
      <point x="1895" y="1289" type="line"/>
      <point x="1895" y="1096" type="line"/>
    </contour>
    <contour>
      <point x="1377" y="1127" type="line"/>
      <point x="1664" y="1127" type="line"/>
      <point x="1664" y="-257" type="line"/>
      <point x="1377" y="-257" type="line"/>
    </contour>
    <contour>
      <point x="1377" y="-257" type="move" name="btm"/>
    </contour>
    <contour>
      <point x="1377" y="1289" type="move" name="top"/>
    </contour>
  </outline>
</glyph>
<glyph name="hanadeva" format="1">
  <advance width="1453"/>
  <outline>
    <contour>
      <point x="1210" y="237" type="line"/>
      <point x="1210" y="35" type="line"/>
      <point x="845" y="35" type="line"/>
      <point x="895" y="86" type="line"/>
      <point x="895" y="-64" type="line"/>
      <point x="895" y="-132"/>
      <point x="866" y="-171"/>
      <point x="809" y="-171" type="curve" smooth="yes"/>
      <point x="777" y="-171"/>
      <point x="738" y="-148"/>
      <point x="696" y="-106" type="curve" smooth="yes"/>
      <point x="635" y="-45"/>
      <point x="577" y="60"/>
      <point x="578" y="133" type="curve" smooth="yes"/>
      <point x="578" y="197"/>
      <point x="618" y="237"/>
      <point x="708" y="237" type="curve" smooth="yes"/>
    </contour>
    <contour>
      <point x="707" y="602" type="curve" smooth="yes"/>
      <point x="1112" y="602"/>
      <point x="1306" y="393"/>
      <point x="1306" y="118" type="curve" smooth="yes"/>
      <point x="1306" y="-246" type="line"/>
      <point x="1061" y="-246" type="line"/>
      <point x="1061" y="126" type="line"/>
      <point x="1061" y="267"/>
      <point x="958" y="385"/>
      <point x="737" y="385" type="curve" smooth="yes"/>
      <point x="515" y="385"/>
      <point x="408" y="254"/>
      <point x="408" y="104" type="curve" smooth="yes"/>
      <point x="408" y="-37"/>
      <point x="481" y="-151"/>
      <point x="703" y="-324" type="curve"/>
      <point x="523" y="-455" type="line"/>
      <point x="268" y="-280"/>
      <point x="150" y="-66"/>
      <point x="150" y="146" type="curve" smooth="yes"/>
      <point x="150" y="365"/>
      <point x="310" y="602"/>
    </contour>
    <contour>
      <point x="1483" y="1096" type="line"/>
      <point x="-30" y="1096" type="line"/>
      <point x="-30" y="1289" type="line"/>
      <point x="1483" y="1289" type="line"/>
    </contour>
    <contour>
      <point x="963" y="1114" type="line"/>
      <point x="1249" y="1114" type="line"/>
      <point x="1249" y="741" type="line"/>
      <point x="491" y="741" type="line"/>
      <point x="391" y="741"/>
      <point x="350" y="697"/>
      <point x="350" y="641" type="curve" smooth="yes"/>
      <point x="350" y="583"/>
      <point x="401" y="541"/>
      <point x="501" y="515" type="curve"/>
      <point x="309" y="367" type="line"/>
      <point x="150" y="456"/>
      <point x="67" y="564"/>
      <point x="67" y="696" type="curve" smooth="yes"/>
      <point x="67" y="826"/>
      <point x="170" y="936"/>
      <point x="378" y="936" type="curve" smooth="yes"/>
      <point x="1003" y="936" type="line"/>
      <point x="963" y="887" type="line"/>
    </contour>
    <contour>
      <point x="1061" y="-246" type="move" name="btm"/>
    </contour>
    <contour>
      <point x="989" y="1289" type="move" name="top"/>
    </contour>
  </outline>
</glyph>
<glyph name="hannadeva" format="1">
  <advance width="1553"/>
  <outline>
    <contour>
      <point x="843" y="414" type="line"/>
      <point x="1051" y="414" type="line"/>
      <point x="1051" y="158" type="line"/>
      <point x="1051" y="-17"/>
      <point x="958" y="-117"/>
      <point x="780" y="-117" type="curve" smooth="yes"/>
      <point x="595" y="-117"/>
      <point x="501" y="1"/>
      <point x="501" y="189" type="curve" smooth="yes"/>
      <point x="501" y="414" type="line"/>
      <point x="709" y="414" type="line"/>
      <point x="709" y="148" type="line"/>
      <point x="709" y="94"/>
      <point x="735" y="65"/>
      <point x="777" y="65" type="curve" smooth="yes"/>
      <point x="822" y="65"/>
      <point x="843" y="97"/>
      <point x="843" y="164" type="curve" smooth="yes"/>
    </contour>
    <contour>
      <point x="1583" y="1096" type="line"/>
      <point x="-30" y="1096" type="line"/>
      <point x="-30" y="1289" type="line"/>
      <point x="1583" y="1289" type="line"/>
    </contour>
    <contour>
      <point x="1063" y="1114" type="line"/>
      <point x="1349" y="1114" type="line"/>
      <point x="1349" y="741" type="line"/>
      <point x="491" y="741" type="line"/>
      <point x="391" y="741"/>
      <point x="350" y="697"/>
      <point x="350" y="641" type="curve" smooth="yes"/>
      <point x="350" y="583"/>
      <point x="401" y="541"/>
      <point x="501" y="515" type="curve"/>
      <point x="309" y="367" type="line"/>
      <point x="150" y="456"/>
      <point x="67" y="564"/>
      <point x="67" y="696" type="curve" smooth="yes"/>
      <point x="67" y="826"/>
      <point x="170" y="936"/>
      <point x="378" y="936" type="curve" smooth="yes"/>
      <point x="1102" y="936" type="line"/>
      <point x="1063" y="887" type="line"/>
    </contour>
    <contour>
      <point x="780" y="383" type="curve" smooth="yes"/>
      <point x="486" y="383"/>
      <point x="397" y="242"/>
      <point x="397" y="88" type="curve" smooth="yes"/>
      <point x="397" y="-45"/>
      <point x="455" y="-168"/>
      <point x="706" y="-351" type="curve"/>
      <point x="519" y="-479" type="line"/>
      <point x="255" y="-289"/>
      <point x="138" y="-82"/>
      <point x="138" y="119" type="curve" smooth="yes"/>
      <point x="138" y="370"/>
      <point x="299" y="609"/>
      <point x="756" y="609" type="curve" smooth="yes"/>
      <point x="1195" y="609"/>
      <point x="1386" y="386"/>
      <point x="1386" y="111" type="curve" smooth="yes"/>
      <point x="1386" y="-197" type="line"/>
      <point x="1141" y="-197" type="line"/>
      <point x="1141" y="112" type="line"/>
      <point x="1141" y="269"/>
      <point x="1052" y="383"/>
    </contour>
    <contour>
      <point x="1142" y="-198" type="move" name="btm"/>
    </contour>
    <contour>
      <point x="1172" y="1289" type="move" name="top"/>
    </contour>
  </outline>
</glyph>
<glyph name="haraudeva" format="1">
  <advance width="1291"/>
  <outline>
    <contour>
      <point x="946" y="411" type="line"/>
      <point x="764" y="44" type="line"/>
      <point x="562" y="115" type="line"/>
      <point x="737" y="483" type="line"/>
    </contour>
    <contour>
      <point x="691" y="599" type="curve" smooth="yes"/>
      <point x="1031" y="599"/>
      <point x="1192" y="429"/>
      <point x="1192" y="243" type="curve" smooth="yes"/>
      <point x="1192" y="168"/>
      <point x="1176" y="103"/>
      <point x="1145" y="48" type="curve"/>
      <point x="927" y="92" type="line"/>
      <point x="948" y="137"/>
      <point x="959" y="179"/>
      <point x="959" y="228" type="curve" smooth="yes"/>
      <point x="959" y="320"/>
      <point x="891" y="389"/>
      <point x="720" y="389" type="curve" smooth="yes"/>
      <point x="541" y="389"/>
      <point x="445" y="282"/>
      <point x="445" y="168" type="curve" smooth="yes"/>
      <point x="445" y="23"/>
      <point x="570" y="-58"/>
      <point x="888" y="-112" type="curve"/>
      <point x="909" y="-321" type="line"/>
      <point x="432" y="-277"/>
      <point x="182" y="-82"/>
      <point x="182" y="188" type="curve" smooth="yes"/>
      <point x="182" y="424"/>
      <point x="377" y="599"/>
    </contour>
    <contour>
      <point x="1321" y="1096" type="line"/>
      <point x="-30" y="1096" type="line"/>
      <point x="-30" y="1289" type="line"/>
      <point x="1321" y="1289" type="line"/>
    </contour>
    <contour>
      <point x="801" y="1114" type="line"/>
      <point x="1088" y="1114" type="line"/>
      <point x="1088" y="741" type="line"/>
      <point x="492" y="741" type="line"/>
      <point x="387" y="741"/>
      <point x="349" y="699"/>
      <point x="349" y="643" type="curve" smooth="yes"/>
      <point x="349" y="587"/>
      <point x="401" y="541"/>
      <point x="501" y="515" type="curve"/>
      <point x="315" y="371" type="line"/>
      <point x="157" y="453"/>
      <point x="60" y="567"/>
      <point x="60" y="693" type="curve" smooth="yes"/>
      <point x="60" y="822"/>
      <point x="156" y="936"/>
      <point x="394" y="936" type="curve" smooth="yes"/>
      <point x="840" y="936" type="line"/>
      <point x="801" y="887" type="line"/>
    </contour>
    <component base="uvowelsigndeva" xOffset="1164" yOffset="-142"/>
  </outline>
</glyph>
<glyph name="hayadeva" format="1">
  <advance width="1870"/>
  <outline>
    <contour>
      <point x="781" y="1114" type="line"/>
      <point x="1067" y="1114" type="line"/>
      <point x="1067" y="741" type="line"/>
      <point x="491" y="741" type="line" smooth="yes"/>
      <point x="391" y="741"/>
      <point x="349" y="697"/>
      <point x="349" y="641" type="curve" smooth="yes"/>
      <point x="349" y="583"/>
      <point x="401" y="541"/>
      <point x="501" y="515" type="curve"/>
      <point x="309" y="367" type="line"/>
      <point x="150" y="455"/>
      <point x="67" y="563"/>
      <point x="67" y="696" type="curve" smooth="yes"/>
      <point x="67" y="826"/>
      <point x="170" y="936"/>
      <point x="378" y="936" type="curve" smooth="yes"/>
      <point x="820" y="936" type="line"/>
      <point x="781" y="887" type="line"/>
    </contour>
    <contour>
      <point x="-30" y="1096" type="line"/>
      <point x="-30" y="1289" type="line"/>
      <point x="1900" y="1289" type="line"/>
      <point x="1900" y="1096" type="line"/>
    </contour>
    <contour>
      <point x="1382" y="1127" type="line"/>
      <point x="1668" y="1127" type="line"/>
      <point x="1668" y="-351" type="line"/>
      <point x="1382" y="-351" type="line"/>
    </contour>
    <contour>
      <point x="898" y="289" type="curve" smooth="yes"/>
      <point x="898" y="326"/>
      <point x="835" y="373"/>
      <point x="705" y="373" type="curve" smooth="yes"/>
      <point x="541" y="373"/>
      <point x="432" y="263"/>
      <point x="432" y="121" type="curve" smooth="yes"/>
      <point x="432" y="-18"/>
      <point x="517" y="-138"/>
      <point x="778" y="-301" type="curve"/>
      <point x="607" y="-446" type="line"/>
      <point x="316" y="-284"/>
      <point x="167" y="-61"/>
      <point x="167" y="168" type="curve" smooth="yes"/>
      <point x="167" y="402"/>
      <point x="366" y="595"/>
      <point x="676" y="595" type="curve" smooth="yes"/>
      <point x="1007" y="595"/>
      <point x="1159" y="450"/>
      <point x="1159" y="290" type="curve" smooth="yes"/>
      <point x="1159" y="154"/>
      <point x="1050" y="56"/>
      <point x="873" y="34" type="curve"/>
      <point x="860" y="126" type="line"/>
      <point x="927" y="54"/>
      <point x="1008" y="22"/>
      <point x="1100" y="22" type="curve" smooth="yes"/>
      <point x="1248" y="22"/>
      <point x="1360" y="91"/>
      <point x="1429" y="222" type="curve"/>
      <point x="1428" y="-153" type="line"/>
      <point x="1365" y="-193"/>
      <point x="1290" y="-212"/>
      <point x="1189" y="-212" type="curve" smooth="yes"/>
      <point x="948" y="-212"/>
      <point x="757" y="-85"/>
      <point x="603" y="153" type="curve"/>
      <point x="613" y="173" type="line"/>
      <point x="848" y="201"/>
      <point x="898" y="237"/>
    </contour>
    <contour>
      <point x="1382" y="-351" type="move" name="btm"/>
    </contour>
    <contour>
      <point x="1382" y="1289" type="move" name="top"/>
    </contour>
  </outline>
</glyph>
<glyph name="ivowelsign01deva" format="1">
  <advance width="651"/>
  <outline>
    <contour>
      <point x="160" y="1254" type="line"/>
      <point x="160" y="1356" type="line"/>
      <point x="160" y="1582"/>
      <point x="318" y="1799"/>
      <point x="723" y="1799" type="curve" smooth="yes"/>
      <point x="919" y="1799"/>
      <point x="1120" y="1749"/>
      <point x="1298" y="1662" type="curve"/>
      <point x="1235" y="1453" type="line"/>
      <point x="1075" y="1524"/>
      <point x="928" y="1559"/>
      <point x="778" y="1559" type="curve" smooth="yes"/>
      <point x="549" y="1559"/>
      <point x="446" y="1448"/>
      <point x="446" y="1331" type="curve" smooth="yes"/>
      <point x="446" y="1254" type="line"/>
    </contour>
    <component base="aavowelsigndeva"/>
  </outline>
</glyph>
<glyph name="ivowelsign07deva" format="1">
  <advance width="651"/>
  <outline>
    <contour>
      <point x="160" y="1254" type="line"/>
      <point x="160" y="1344" type="line"/>
      <point x="160" y="1590"/>
      <point x="339" y="1882"/>
      <point x="1098" y="1882" type="curve" smooth="yes"/>
      <point x="1597" y="1882"/>
      <point x="2017" y="1801"/>
      <point x="2423" y="1666" type="curve"/>
      <point x="2379" y="1446" type="line"/>
      <point x="1993" y="1569"/>
      <point x="1549" y="1635"/>
      <point x="1151" y="1634" type="curve" smooth="yes"/>
      <point x="571" y="1632"/>
      <point x="446" y="1454"/>
      <point x="446" y="1328" type="curve" smooth="yes"/>
      <point x="446" y="1254" type="line"/>
    </contour>
    <component base="aavowelsigndeva"/>
  </outline>
</glyph>
<glyph name="ivowelsign08deva" format="1">
  <advance width="651"/>
  <outline>
    <contour>
      <point x="160" y="1254" type="line"/>
      <point x="160" y="1344" type="line"/>
      <point x="160" y="1603"/>
      <point x="375" y="1908"/>
      <point x="1164" y="1908" type="curve" smooth="yes"/>
      <point x="1671" y="1908"/>
      <point x="2148" y="1824"/>
      <point x="2627" y="1668" type="curve"/>
      <point x="2588" y="1446" type="line"/>
      <point x="2102" y="1588"/>
      <point x="1700" y="1656"/>
      <point x="1232" y="1656" type="curve" smooth="yes"/>
      <point x="625" y="1656"/>
      <point x="446" y="1467"/>
      <point x="446" y="1328" type="curve" smooth="yes"/>
      <point x="446" y="1254" type="line"/>
    </contour>
    <component base="aavowelsigndeva"/>
  </outline>
</glyph>
<glyph name="ivowelsign11deva" format="1">
  <advance width="651"/>
  <outline>
    <contour>
      <point x="160" y="1254" type="line"/>
      <point x="160" y="1351" type="line"/>
      <point x="160" y="1599"/>
      <point x="396" y="1924"/>
      <point x="1320" y="1924" type="curve" smooth="yes"/>
      <point x="2004" y="1924"/>
      <point x="2687" y="1830"/>
      <point x="3275" y="1668" type="curve"/>
      <point x="3237" y="1447" type="line"/>
      <point x="2614" y="1592"/>
      <point x="2014" y="1673"/>
      <point x="1355" y="1673" type="curve" smooth="yes"/>
      <point x="653" y="1673"/>
      <point x="446" y="1476"/>
      <point x="446" y="1328" type="curve" smooth="yes"/>
      <point x="446" y="1254" type="line"/>
    </contour>
    <component base="aavowelsigndeva"/>
  </outline>
</glyph>
<glyph name="jajadeva" format="1">
  <advance width="2382"/>
  <outline>
    <contour>
      <point x="-30" y="1096" type="line"/>
      <point x="-30" y="1289" type="line"/>
      <point x="1185" y="1289" type="line"/>
      <point x="1185" y="1096" type="line"/>
    </contour>
    <contour>
      <point x="737" y="667" type="line"/>
      <point x="754" y="768" type="line"/>
      <point x="902" y="676"/>
      <point x="975" y="552"/>
      <point x="975" y="406" type="curve" smooth="yes"/>
      <point x="975" y="224"/>
      <point x="837" y="71"/>
      <point x="606" y="71" type="curve" smooth="yes"/>
      <point x="392" y="71"/>
      <point x="188" y="203"/>
      <point x="22" y="456" type="curve"/>
      <point x="159" y="649" type="line"/>
      <point x="332" y="398"/>
      <point x="469" y="323"/>
      <point x="572" y="323" type="curve" smooth="yes"/>
      <point x="659" y="323"/>
      <point x="714" y="375"/>
      <point x="714" y="454" type="curve" smooth="yes"/>
      <point x="714" y="556"/>
      <point x="617" y="665"/>
      <point x="443" y="702" type="curve"/>
      <point x="443" y="903" type="line"/>
      <point x="1275" y="903" type="line"/>
      <point x="1269" y="667" type="line"/>
    </contour>
    <component base="jadeva" xOffset="689"/>
    <contour>
      <point x="1844" y="1289" type="move" name="top"/>
    </contour>
  </outline>
</glyph>
<glyph name="janyaprehalfdeva" format="1">
  <advance width="1057"/>
  <outline>
    <contour>
      <point x="-30" y="1096" type="line"/>
      <point x="-30" y="1289" type="line"/>
      <point x="1087" y="1289" type="line"/>
      <point x="1087" y="1096" type="line"/>
    </contour>
    <contour>
      <point x="560" y="138" type="line"/>
      <point x="854" y="-175" type="line"/>
      <point x="676" y="-289" type="line"/>
      <point x="342" y="76" type="line"/>
      <point x="459" y="-6" type="line"/>
      <point x="209" y="-6"/>
      <point x="118" y="95"/>
      <point x="118" y="174" type="curve" smooth="yes"/>
      <point x="118" y="246"/>
      <point x="179" y="312"/>
      <point x="271" y="312" type="curve" smooth="yes"/>
      <point x="355" y="312"/>
      <point x="434" y="273"/>
      <point x="539" y="164" type="curve"/>
    </contour>
    <contour>
      <point x="1304" y="757" type="line"/>
      <point x="473" y="757" type="line"/>
      <point x="389" y="757"/>
      <point x="346" y="717"/>
      <point x="346" y="667" type="curve" smooth="yes"/>
      <point x="346" y="619"/>
      <point x="388" y="585"/>
      <point x="460" y="555" type="curve"/>
      <point x="343" y="566" type="line"/>
      <point x="434" y="603"/>
      <point x="527" y="630"/>
      <point x="665" y="630" type="curve" smooth="yes"/>
      <point x="872" y="630"/>
      <point x="1011" y="512"/>
      <point x="1011" y="344" type="curve" smooth="yes"/>
      <point x="1011" y="167"/>
      <point x="834" y="-4"/>
      <point x="511" y="-4" type="curve"/>
      <point x="462" y="208" type="line"/>
      <point x="666" y="208"/>
      <point x="746" y="289"/>
      <point x="746" y="347" type="curve" smooth="yes"/>
      <point x="746" y="395"/>
      <point x="708" y="424"/>
      <point x="631" y="424" type="curve" smooth="yes"/>
      <point x="567" y="424"/>
      <point x="484" y="394"/>
      <point x="410" y="358" type="curve"/>
      <point x="394" y="358" type="line"/>
      <point x="173" y="459"/>
      <point x="90" y="570"/>
      <point x="90" y="708" type="curve" smooth="yes"/>
      <point x="90" y="834"/>
      <point x="187" y="948"/>
      <point x="420" y="948" type="curve" smooth="yes"/>
      <point x="1335" y="948" type="line"/>
    </contour>
  </outline>
</glyph>
<glyph name="jaradeva" format="1">
  <advance width="1693"/>
  <outline>
    <contour>
      <point x="1386" y="408" type="line"/>
      <point x="663" y="-230" type="line"/>
      <point x="499" y="-67" type="line"/>
      <point x="1249" y="591" type="line"/>
    </contour>
    <contour>
      <point x="-30" y="1096" type="line"/>
      <point x="-30" y="1289" type="line"/>
      <point x="1723" y="1289" type="line"/>
      <point x="1723" y="1096" type="line"/>
    </contour>
    <contour>
      <point x="1202" y="1132" type="line"/>
      <point x="1488" y="1132" type="line"/>
      <point x="1488" y="0" type="line"/>
      <point x="1202" y="0" type="line"/>
    </contour>
    <contour>
      <point x="737" y="667" type="line"/>
      <point x="754" y="768" type="line"/>
      <point x="902" y="676"/>
      <point x="975" y="552"/>
      <point x="975" y="406" type="curve" smooth="yes"/>
      <point x="975" y="226"/>
      <point x="835" y="71"/>
      <point x="606" y="71" type="curve" smooth="yes"/>
      <point x="399" y="71"/>
      <point x="188" y="196"/>
      <point x="22" y="450" type="curve"/>
      <point x="159" y="642" type="line"/>
      <point x="332" y="391"/>
      <point x="475" y="322"/>
      <point x="572" y="322" type="curve" smooth="yes"/>
      <point x="657" y="322"/>
      <point x="714" y="377"/>
      <point x="714" y="453" type="curve" smooth="yes"/>
      <point x="714" y="555"/>
      <point x="617" y="665"/>
      <point x="443" y="702" type="curve"/>
      <point x="443" y="903" type="line"/>
      <point x="1246" y="903" type="line"/>
      <point x="1246" y="667" type="line"/>
    </contour>
    <contour>
      <point x="1209" y="1289" type="move" name="top"/>
    </contour>
  </outline>
</glyph>
<glyph name="jaraprehalfdeva" format="1">
  <advance width="1155"/>
  <outline>
    <contour>
      <point x="1455" y="447" type="line"/>
      <point x="673" y="-246" type="line"/>
      <point x="508" y="-82" type="line"/>
      <point x="1346" y="655" type="line"/>
    </contour>
    <contour>
      <point x="-30" y="1096" type="line"/>
      <point x="-30" y="1289" type="line"/>
      <point x="1185" y="1289" type="line"/>
      <point x="1185" y="1096" type="line"/>
    </contour>
    <contour>
      <point x="737" y="638" type="line"/>
      <point x="754" y="739" type="line"/>
      <point x="902" y="647"/>
      <point x="975" y="522"/>
      <point x="975" y="376" type="curve" smooth="yes"/>
      <point x="975" y="194"/>
      <point x="837" y="41"/>
      <point x="606" y="41" type="curve" smooth="yes"/>
      <point x="392" y="41"/>
      <point x="188" y="173"/>
      <point x="22" y="427" type="curve"/>
      <point x="159" y="619" type="line"/>
      <point x="332" y="368"/>
      <point x="469" y="293"/>
      <point x="572" y="293" type="curve" smooth="yes"/>
      <point x="659" y="293"/>
      <point x="714" y="345"/>
      <point x="714" y="424" type="curve" smooth="yes"/>
      <point x="714" y="526"/>
      <point x="617" y="635"/>
      <point x="443" y="672" type="curve"/>
      <point x="443" y="873" type="line"/>
      <point x="1421" y="873" type="line"/>
      <point x="1383" y="638" type="line"/>
    </contour>
  </outline>
</glyph>
<glyph name="jasadeva" format="1">
  <advance width="2617"/>
  <outline>
    <contour>
      <point x="-30" y="1096" type="line"/>
      <point x="-30" y="1289" type="line"/>
      <point x="1185" y="1289" type="line"/>
      <point x="1185" y="1096" type="line"/>
    </contour>
    <contour>
      <point x="737" y="637" type="line"/>
      <point x="754" y="739" type="line"/>
      <point x="902" y="647"/>
      <point x="975" y="522"/>
      <point x="975" y="376" type="curve" smooth="yes"/>
      <point x="975" y="195"/>
      <point x="837" y="41"/>
      <point x="606" y="41" type="curve" smooth="yes"/>
      <point x="392" y="41"/>
      <point x="188" y="173"/>
      <point x="22" y="427" type="curve"/>
      <point x="159" y="619" type="line"/>
      <point x="332" y="368"/>
      <point x="469" y="293"/>
      <point x="572" y="293" type="curve" smooth="yes"/>
      <point x="659" y="293"/>
      <point x="714" y="345"/>
      <point x="714" y="424" type="curve" smooth="yes"/>
      <point x="714" y="526"/>
      <point x="617" y="635"/>
      <point x="443" y="672" type="curve"/>
      <point x="443" y="873" type="line"/>
      <point x="1216" y="873" type="line"/>
      <point x="1201" y="637" type="line"/>
    </contour>
    <component base="sadeva" xOffset="1057"/>
  </outline>
</glyph>
<glyph name="jayadeva" format="1">
  <advance width="2434"/>
  <outline>
    <contour>
      <point x="735" y="606" type="line"/>
      <point x="762" y="681" type="line"/>
      <point x="888" y="609"/>
      <point x="963" y="501"/>
      <point x="963" y="353" type="curve" smooth="yes"/>
      <point x="963" y="180"/>
      <point x="832" y="38"/>
      <point x="621" y="38" type="curve" smooth="yes"/>
      <point x="401" y="38"/>
      <point x="199" y="167"/>
      <point x="28" y="422" type="curve"/>
      <point x="158" y="611" type="line"/>
      <point x="338" y="356"/>
      <point x="462" y="283"/>
      <point x="567" y="283" type="curve" smooth="yes"/>
      <point x="655" y="283"/>
      <point x="711" y="337"/>
      <point x="711" y="417" type="curve" smooth="yes"/>
      <point x="711" y="507"/>
      <point x="629" y="596"/>
      <point x="449" y="640" type="curve"/>
      <point x="449" y="841" type="line"/>
      <point x="1399" y="841" type="line"/>
      <point x="1361" y="606" type="line"/>
    </contour>
    <contour>
      <point x="-30" y="1096" type="line"/>
      <point x="-30" y="1289" type="line"/>
      <point x="1178" y="1289" type="line"/>
      <point x="1178" y="1096" type="line"/>
    </contour>
    <component base="yadeva" xOffset="1062"/>
  </outline>
</glyph>
<glyph name="jhadevaNEP" format="1">
  <advance width="2017"/>
  <outline>
    <contour>
      <point x="1290" y="1096" type="line"/>
      <point x="1290" y="1289" type="line"/>
      <point x="2047" y="1289" type="line"/>
      <point x="2047" y="1096" type="line"/>
    </contour>
    <contour>
      <point x="1278" y="426" type="curve"/>
      <point x="1272" y="782" type="line"/>
      <point x="1327" y="805"/>
      <point x="1387" y="821"/>
      <point x="1488" y="821" type="curve" smooth="yes"/>
      <point x="1750" y="821"/>
      <point x="1928" y="648"/>
      <point x="1928" y="437" type="curve" smooth="yes"/>
      <point x="1928" y="309"/>
      <point x="1883" y="187"/>
      <point x="1805" y="81" type="curve"/>
      <point x="1553" y="166" type="line"/>
      <point x="1626" y="268"/>
      <point x="1663" y="356"/>
      <point x="1663" y="448" type="curve" smooth="yes"/>
      <point x="1663" y="525"/>
      <point x="1610" y="583"/>
      <point x="1522" y="583" type="curve" smooth="yes"/>
      <point x="1434" y="583"/>
      <point x="1351" y="534"/>
    </contour>
    <component base="bhadeva"/>
    <contour>
      <point x="997" y="0" type="move" name="btm"/>
    </contour>
    <contour>
      <point x="997" y="1289" type="move" name="top"/>
    </contour>
  </outline>
</glyph>
<glyph name="jhaprehalfdevaNEP" format="1">
  <advance width="1598"/>
  <outline>
    <contour>
      <point x="1235" y="359" type="curve"/>
      <point x="1223" y="735" type="line"/>
      <point x="1271" y="763"/>
      <point x="1355" y="795"/>
      <point x="1478" y="795" type="curve" smooth="yes"/>
      <point x="1633" y="795"/>
      <point x="1778" y="753"/>
      <point x="1918" y="641" type="curve"/>
      <point x="1855" y="449" type="line"/>
      <point x="1732" y="529"/>
      <point x="1645" y="561"/>
      <point x="1530" y="561" type="curve" smooth="yes"/>
      <point x="1416" y="561"/>
      <point x="1302" y="496"/>
    </contour>
    <contour>
      <point x="1236" y="1096" type="line"/>
      <point x="1236" y="1289" type="line"/>
      <point x="1628" y="1289" type="line"/>
      <point x="1628" y="1096" type="line"/>
    </contour>
    <component base="bhadeva"/>
  </outline>
</glyph>
<glyph name="kassaradeva" format="1">
  <advance width="1741"/>
  <outline>
    <contour>
      <point x="459" y="133" type="line"/>
      <point x="657" y="200" type="line"/>
      <point x="797" y="-109" type="line"/>
      <point x="586" y="-178" type="line"/>
    </contour>
    <contour>
      <point x="606" y="606" type="curve" smooth="yes"/>
      <point x="345" y="488"/>
      <point x="299" y="426"/>
      <point x="299" y="350" type="curve" smooth="yes"/>
      <point x="299" y="274"/>
      <point x="347" y="227"/>
      <point x="428" y="227" type="curve" smooth="yes"/>
      <point x="475" y="227"/>
      <point x="485" y="232"/>
      <point x="557" y="258" type="curve"/>
      <point x="441" y="166" type="line"/>
      <point x="420" y="211"/>
      <point x="412" y="239"/>
      <point x="412" y="284" type="curve" smooth="yes"/>
      <point x="412" y="334"/>
      <point x="475" y="389"/>
      <point x="563" y="389" type="curve" smooth="yes"/>
      <point x="712" y="389"/>
      <point x="813" y="312"/>
      <point x="813" y="230" type="curve" smooth="yes"/>
      <point x="813" y="141"/>
      <point x="676" y="35"/>
      <point x="451" y="35" type="curve" smooth="yes"/>
      <point x="223" y="35"/>
      <point x="39" y="158"/>
      <point x="39" y="369" type="curve" smooth="yes"/>
      <point x="39" y="519"/>
      <point x="136" y="641"/>
      <point x="433" y="765" type="curve" smooth="yes"/>
      <point x="666" y="864"/>
      <point x="722" y="931"/>
      <point x="722" y="1007" type="curve" smooth="yes"/>
      <point x="722" y="1067"/>
      <point x="676" y="1110"/>
      <point x="611" y="1110" type="curve" smooth="yes"/>
      <point x="538" y="1110"/>
      <point x="495" y="1064"/>
      <point x="495" y="995" type="curve" smooth="yes"/>
      <point x="495" y="871"/>
      <point x="741" y="727"/>
      <point x="1345" y="727" type="curve"/>
      <point x="1338" y="505" type="line"/>
      <point x="585" y="506"/>
      <point x="250" y="751"/>
      <point x="250" y="1039" type="curve" smooth="yes"/>
      <point x="250" y="1194"/>
      <point x="365" y="1318"/>
      <point x="585" y="1318" type="curve" smooth="yes"/>
      <point x="830" y="1318"/>
      <point x="951" y="1171"/>
      <point x="951" y="1012" type="curve" smooth="yes"/>
      <point x="951" y="851"/>
      <point x="845" y="714"/>
    </contour>
    <contour>
      <point x="1357" y="529" type="line"/>
      <point x="984" y="60" type="line"/>
      <point x="789" y="199" type="line"/>
      <point x="1167" y="656" type="line"/>
    </contour>
    <contour>
      <point x="1248" y="1132" type="line"/>
      <point x="1536" y="1132" type="line"/>
      <point x="1536" y="0" type="line"/>
      <point x="1248" y="0" type="line"/>
    </contour>
    <contour>
      <point x="1771" y="1096" type="line"/>
      <point x="1109" y="1096" type="line"/>
      <point x="1109" y="1289" type="line"/>
      <point x="1771" y="1289" type="line"/>
    </contour>
    <contour>
      <point x="1248" y="1289" type="move" name="top"/>
    </contour>
  </outline>
</glyph>
<glyph name="kassaraprehalfdeva" format="1">
  <advance width="1148"/>
  <outline>
    <contour>
      <point x="483" y="133" type="line"/>
      <point x="681" y="200" type="line"/>
      <point x="821" y="-110" type="line"/>
      <point x="610" y="-179" type="line"/>
    </contour>
    <contour>
      <point x="263" y="1038" type="curve" smooth="yes"/>
      <point x="263" y="1194"/>
      <point x="384" y="1321"/>
      <point x="602" y="1321" type="curve" smooth="yes"/>
      <point x="848" y="1321"/>
      <point x="972" y="1165"/>
      <point x="972" y="1005" type="curve" smooth="yes"/>
      <point x="972" y="845"/>
      <point x="861" y="714"/>
      <point x="621" y="606" type="curve" smooth="yes"/>
      <point x="361" y="488"/>
      <point x="315" y="426"/>
      <point x="315" y="350" type="curve" smooth="yes"/>
      <point x="315" y="274"/>
      <point x="362" y="227"/>
      <point x="444" y="227" type="curve" smooth="yes"/>
      <point x="491" y="227"/>
      <point x="510" y="232"/>
      <point x="581" y="258" type="curve"/>
      <point x="469" y="166" type="line"/>
      <point x="448" y="211"/>
      <point x="440" y="238"/>
      <point x="440" y="280" type="curve" smooth="yes"/>
      <point x="440" y="331"/>
      <point x="503" y="384"/>
      <point x="588" y="384" type="curve" smooth="yes"/>
      <point x="731" y="384"/>
      <point x="831" y="311"/>
      <point x="831" y="229" type="curve" smooth="yes"/>
      <point x="831" y="140"/>
      <point x="688" y="36"/>
      <point x="467" y="36" type="curve" smooth="yes"/>
      <point x="238" y="36"/>
      <point x="55" y="158"/>
      <point x="55" y="369" type="curve" smooth="yes"/>
      <point x="55" y="519"/>
      <point x="158" y="643"/>
      <point x="449" y="764" type="curve" smooth="yes"/>
      <point x="682" y="864"/>
      <point x="738" y="931"/>
      <point x="738" y="1007" type="curve" smooth="yes"/>
      <point x="738" y="1064"/>
      <point x="692" y="1109"/>
      <point x="627" y="1109" type="curve" smooth="yes"/>
      <point x="555" y="1109"/>
      <point x="515" y="1066"/>
      <point x="515" y="997" type="curve" smooth="yes"/>
      <point x="515" y="883"/>
      <point x="756" y="710"/>
      <point x="1316" y="708" type="curve"/>
      <point x="1348" y="490" type="line"/>
      <point x="624" y="495"/>
      <point x="263" y="751"/>
    </contour>
    <contour>
      <point x="1347" y="490" type="line"/>
      <point x="992" y="63" type="line"/>
      <point x="800" y="200" type="line"/>
      <point x="1166" y="626" type="line"/>
    </contour>
  </outline>
</glyph>
<glyph name="khaprehalfdeva" format="1">
  <advance width="1411"/>
  <outline>
    <contour>
      <point x="245" y="695" type="line"/>
      <point x="397" y="742"/>
      <point x="434" y="828"/>
      <point x="434" y="959" type="curve" smooth="yes"/>
      <point x="434" y="1169" type="line"/>
      <point x="721" y="1169" type="line"/>
      <point x="721" y="943" type="line"/>
      <point x="721" y="736"/>
      <point x="663" y="566"/>
      <point x="406" y="449" type="curve"/>
    </contour>
    <contour>
      <point x="-30" y="1096" type="line"/>
      <point x="-30" y="1289" type="line"/>
      <point x="1441" y="1289" type="line"/>
      <point x="1441" y="1096" type="line"/>
    </contour>
    <contour>
      <point x="339" y="626" type="line"/>
      <point x="380" y="554"/>
      <point x="438" y="481"/>
      <point x="494" y="425" type="curve" smooth="yes"/>
      <point x="649" y="270"/>
      <point x="862" y="186"/>
      <point x="1095" y="186" type="curve" smooth="yes"/>
      <point x="1350" y="186"/>
      <point x="1538" y="286"/>
      <point x="1704" y="473" type="curve"/>
      <point x="1847" y="304" type="line"/>
      <point x="1673" y="125"/>
      <point x="1460" y="-21"/>
      <point x="1080" y="-21" type="curve" smooth="yes"/>
      <point x="787" y="-21"/>
      <point x="495" y="98"/>
      <point x="309" y="284" type="curve" smooth="yes"/>
      <point x="202" y="391"/>
      <point x="116" y="516"/>
      <point x="71" y="608" type="curve" smooth="yes"/>
      <point x="51" y="651"/>
      <point x="40" y="690"/>
      <point x="40" y="719" type="curve" smooth="yes"/>
      <point x="40" y="789"/>
      <point x="90" y="843"/>
      <point x="160" y="843" type="curve" smooth="yes"/>
      <point x="225" y="843"/>
      <point x="269" y="813"/>
      <point x="325" y="739" type="curve" smooth="yes"/>
      <point x="377" y="662" type="line"/>
    </contour>
    <contour>
      <point x="1381" y="669" type="curve" smooth="yes"/>
      <point x="1381" y="727"/>
      <point x="1305" y="778"/>
      <point x="1198" y="778" type="curve" smooth="yes"/>
      <point x="1095" y="778"/>
      <point x="1044" y="720"/>
      <point x="1044" y="650" type="curve" smooth="yes"/>
      <point x="1044" y="575"/>
      <point x="1103" y="524"/>
      <point x="1184" y="524" type="curve" smooth="yes"/>
      <point x="1297" y="524"/>
      <point x="1381" y="601"/>
    </contour>
    <contour>
      <point x="1578" y="644" type="curve" smooth="yes"/>
      <point x="1578" y="478"/>
      <point x="1413" y="327"/>
      <point x="1207" y="327" type="curve" smooth="yes"/>
      <point x="989" y="327"/>
      <point x="824" y="494"/>
      <point x="824" y="679" type="curve" smooth="yes"/>
      <point x="824" y="841"/>
      <point x="926" y="967"/>
      <point x="1151" y="968" type="curve" smooth="yes"/>
      <point x="1436" y="969"/>
      <point x="1578" y="810"/>
    </contour>
  </outline>
</glyph>
<glyph name="kharadeva" format="1">
  <advance width="1799"/>
  <outline>
    <contour>
      <point x="1447" y="345" type="line"/>
      <point x="642" y="-198" type="line"/>
      <point x="482" y="-12" type="line"/>
      <point x="1289" y="543" type="line"/>
    </contour>
    <contour>
      <point x="1354" y="715" type="line"/>
      <point x="1283" y="755"/>
      <point x="1201" y="774"/>
      <point x="1120" y="774" type="curve" smooth="yes"/>
      <point x="1024" y="774"/>
      <point x="967" y="713"/>
      <point x="967" y="652" type="curve" smooth="yes"/>
      <point x="967" y="586"/>
      <point x="1018" y="536"/>
      <point x="1093" y="536" type="curve" smooth="yes"/>
      <point x="1189" y="536"/>
      <point x="1280" y="599"/>
      <point x="1347" y="695" type="curve"/>
      <point x="1347" y="394" type="line"/>
      <point x="1285" y="354"/>
      <point x="1212" y="334"/>
      <point x="1119" y="334" type="curve" smooth="yes"/>
      <point x="896" y="334"/>
      <point x="737" y="498"/>
      <point x="737" y="681" type="curve" smooth="yes"/>
      <point x="737" y="838"/>
      <point x="848" y="966"/>
      <point x="1068" y="966" type="curve" smooth="yes"/>
      <point x="1188" y="966"/>
      <point x="1281" y="941"/>
      <point x="1354" y="901" type="curve"/>
    </contour>
    <contour>
      <point x="246" y="702" type="line"/>
      <point x="397" y="749"/>
      <point x="434" y="828"/>
      <point x="434" y="959" type="curve" smooth="yes"/>
      <point x="434" y="1169" type="line"/>
      <point x="721" y="1169" type="line"/>
      <point x="721" y="943" type="line"/>
      <point x="721" y="742"/>
      <point x="671" y="566"/>
      <point x="413" y="449" type="curve"/>
    </contour>
    <contour>
      <point x="-30" y="1096" type="line"/>
      <point x="-30" y="1289" type="line"/>
      <point x="1829" y="1289" type="line"/>
      <point x="1829" y="1096" type="line"/>
    </contour>
    <contour>
      <point x="1308" y="1132" type="line"/>
      <point x="1594" y="1132" type="line"/>
      <point x="1594" y="0" type="line"/>
      <point x="1308" y="0" type="line"/>
    </contour>
    <contour>
      <point x="347" y="629" type="line"/>
      <point x="389" y="553"/>
      <point x="433" y="500"/>
      <point x="489" y="444" type="curve" smooth="yes"/>
      <point x="643" y="290"/>
      <point x="833" y="227"/>
      <point x="1058" y="227" type="curve"/>
      <point x="969" y="30" type="line"/>
      <point x="751" y="30"/>
      <point x="459" y="139"/>
      <point x="282" y="316" type="curve" smooth="yes"/>
      <point x="188" y="410"/>
      <point x="113" y="517"/>
      <point x="70" y="609" type="curve" smooth="yes"/>
      <point x="50" y="651"/>
      <point x="39" y="688"/>
      <point x="39" y="719" type="curve" smooth="yes"/>
      <point x="39" y="788"/>
      <point x="94" y="843"/>
      <point x="165" y="843" type="curve" smooth="yes"/>
      <point x="234" y="843"/>
      <point x="274" y="813"/>
      <point x="330" y="739" type="curve" smooth="yes"/>
      <point x="382" y="662" type="line"/>
    </contour>
    <contour>
      <point x="1308" y="1289" type="move" name="top"/>
    </contour>
  </outline>
</glyph>
<glyph name="kharaprehalfdeva" format="1">
  <advance width="1330"/>
  <outline>
    <contour>
      <point x="246" y="702" type="line"/>
      <point x="397" y="749"/>
      <point x="434" y="828"/>
      <point x="434" y="959" type="curve" smooth="yes"/>
      <point x="434" y="1169" type="line"/>
      <point x="721" y="1169" type="line"/>
      <point x="721" y="943" type="line"/>
      <point x="721" y="742"/>
      <point x="671" y="566"/>
      <point x="413" y="449" type="curve"/>
    </contour>
    <contour>
      <point x="1493" y="644" type="curve" smooth="yes"/>
      <point x="1493" y="481"/>
      <point x="1329" y="334"/>
      <point x="1121" y="334" type="curve" smooth="yes"/>
      <point x="900" y="334"/>
      <point x="737" y="499"/>
      <point x="737" y="682" type="curve" smooth="yes"/>
      <point x="737" y="836"/>
      <point x="844" y="964"/>
      <point x="1063" y="964" type="curve" smooth="yes"/>
      <point x="1341" y="964"/>
      <point x="1493" y="814"/>
    </contour>
    <contour>
      <point x="347" y="629" type="line"/>
      <point x="389" y="553"/>
      <point x="434" y="499"/>
      <point x="486" y="448" type="curve" smooth="yes"/>
      <point x="647" y="287"/>
      <point x="836" y="227"/>
      <point x="1058" y="227" type="curve"/>
      <point x="969" y="30" type="line"/>
      <point x="751" y="30"/>
      <point x="459" y="139"/>
      <point x="282" y="316" type="curve" smooth="yes"/>
      <point x="188" y="410"/>
      <point x="113" y="517"/>
      <point x="70" y="609" type="curve" smooth="yes"/>
      <point x="50" y="651"/>
      <point x="39" y="688"/>
      <point x="39" y="719" type="curve" smooth="yes"/>
      <point x="39" y="788"/>
      <point x="94" y="843"/>
      <point x="165" y="843" type="curve" smooth="yes"/>
      <point x="234" y="843"/>
      <point x="274" y="813"/>
      <point x="330" y="739" type="curve" smooth="yes"/>
      <point x="382" y="662" type="line"/>
    </contour>
    <contour>
      <point x="-30" y="1096" type="line"/>
      <point x="-30" y="1289" type="line"/>
      <point x="1360" y="1289" type="line"/>
      <point x="1360" y="1096" type="line"/>
    </contour>
    <contour>
      <point x="1292" y="669" type="curve" smooth="yes"/>
      <point x="1292" y="727"/>
      <point x="1222" y="773"/>
      <point x="1114" y="773" type="curve" smooth="yes"/>
      <point x="1020" y="773"/>
      <point x="967" y="711"/>
      <point x="967" y="652" type="curve" smooth="yes"/>
      <point x="967" y="586"/>
      <point x="1020" y="536"/>
      <point x="1095" y="536" type="curve" smooth="yes"/>
      <point x="1209" y="536"/>
      <point x="1292" y="602"/>
    </contour>
    <contour>
      <point x="1592" y="446" type="line"/>
      <point x="641" y="-199" type="line"/>
      <point x="481" y="-13" type="line"/>
      <point x="1476" y="664" type="line"/>
    </contour>
  </outline>
</glyph>
<glyph name="labhadeva" format="1">
  <advance width="2550"/>
  <outline>
    <contour>
      <point x="846" y="241" type="curve"/>
      <point x="615" y="350" type="line"/>
      <point x="730" y="646"/>
      <point x="916" y="770"/>
      <point x="1102" y="770" type="curve" smooth="yes"/>
      <point x="1247" y="770"/>
      <point x="1403" y="703"/>
      <point x="1517" y="582" type="curve"/>
      <point x="1343" y="426" type="line"/>
      <point x="1278" y="492"/>
      <point x="1227" y="519"/>
      <point x="1149" y="519" type="curve" smooth="yes"/>
      <point x="1046" y="519"/>
      <point x="943" y="460"/>
    </contour>
    <contour>
      <point x="-30" y="1096" type="line"/>
      <point x="-30" y="1289" type="line"/>
      <point x="1244" y="1289" type="line"/>
      <point x="1196" y="1096" type="line"/>
    </contour>
    <contour>
      <point x="1006" y="615" type="curve"/>
      <point x="819" y="458" type="line"/>
      <point x="724" y="573"/>
      <point x="646" y="618"/>
      <point x="544" y="618" type="curve" smooth="yes"/>
      <point x="431" y="618"/>
      <point x="360" y="532"/>
      <point x="360" y="431" type="curve" smooth="yes"/>
      <point x="360" y="333"/>
      <point x="411" y="233"/>
      <point x="574" y="81" type="curve"/>
      <point x="355" y="-42" type="line"/>
      <point x="185" y="118"/>
      <point x="83" y="301"/>
      <point x="83" y="485" type="curve" smooth="yes"/>
      <point x="83" y="693"/>
      <point x="237" y="869"/>
      <point x="495" y="869" type="curve" smooth="yes"/>
      <point x="709" y="869"/>
      <point x="866" y="772"/>
    </contour>
    <component base="bhadeva" xOffset="1035"/>
  </outline>
</glyph>
<glyph name="lajadeva" format="1">
  <advance width="2962"/>
  <outline>
    <contour>
      <point x="-30" y="1096" type="line"/>
      <point x="-30" y="1289" type="line"/>
      <point x="1265" y="1289" type="line"/>
      <point x="1265" y="1096" type="line"/>
    </contour>
    <contour>
      <point x="843" y="255" type="curve"/>
      <point x="615" y="363" type="line"/>
      <point x="717" y="652"/>
      <point x="894" y="838"/>
      <point x="1094" y="838" type="curve" smooth="yes"/>
      <point x="1230" y="838"/>
      <point x="1331" y="784"/>
      <point x="1433" y="636" type="curve"/>
      <point x="1295" y="444" type="line"/>
      <point x="1229" y="542"/>
      <point x="1181" y="574"/>
      <point x="1118" y="574" type="curve" smooth="yes"/>
      <point x="1033" y="574"/>
      <point x="939" y="488"/>
    </contour>
    <contour>
      <point x="1006" y="645" type="curve"/>
      <point x="819" y="488" type="line"/>
      <point x="724" y="602"/>
      <point x="646" y="647"/>
      <point x="544" y="647" type="curve" smooth="yes"/>
      <point x="431" y="647"/>
      <point x="360" y="561"/>
      <point x="360" y="461" type="curve" smooth="yes"/>
      <point x="360" y="360"/>
      <point x="416" y="258"/>
      <point x="581" y="103" type="curve"/>
      <point x="362" y="-20" type="line"/>
      <point x="191" y="138"/>
      <point x="83" y="321"/>
      <point x="83" y="515" type="curve" smooth="yes"/>
      <point x="83" y="723"/>
      <point x="237" y="899"/>
      <point x="495" y="899" type="curve" smooth="yes"/>
      <point x="709" y="899"/>
      <point x="866" y="802"/>
    </contour>
    <component base="jadeva" xOffset="1269"/>
  </outline>
</glyph>
<glyph name="laprehalfdeva" format="1">
  <advance width="1097"/>
  <outline>
    <contour>
      <point x="-30" y="1096" type="line"/>
      <point x="-30" y="1289" type="line"/>
      <point x="1127" y="1289" type="line"/>
      <point x="1127" y="1096" type="line"/>
    </contour>
    <contour>
      <point x="1317" y="839" type="line"/>
      <point x="1384" y="591" type="line"/>
      <point x="749" y="216" type="line"/>
      <point x="592" y="404" type="line"/>
    </contour>
    <contour>
      <point x="1027" y="649" type="curve"/>
      <point x="840" y="486" type="line"/>
      <point x="734" y="613"/>
      <point x="651" y="657"/>
      <point x="547" y="657" type="curve" smooth="yes"/>
      <point x="435" y="657"/>
      <point x="360" y="568"/>
      <point x="360" y="465" type="curve" smooth="yes"/>
      <point x="360" y="357"/>
      <point x="414" y="260"/>
      <point x="582" y="102" type="curve"/>
      <point x="362" y="-20" type="line"/>
      <point x="189" y="139"/>
      <point x="81" y="317"/>
      <point x="81" y="519" type="curve" smooth="yes"/>
      <point x="81" y="732"/>
      <point x="239" y="909"/>
      <point x="499" y="909" type="curve" smooth="yes"/>
      <point x="715" y="909"/>
      <point x="874" y="816"/>
    </contour>
  </outline>
</glyph>
<glyph name="llaprehalfdeva" format="1">
  <advance width="1716"/>
  <outline>
    <contour>
      <point x="1746" y="1096" type="line"/>
      <point x="-30" y="1096" type="line"/>
      <point x="-30" y="1289" type="line"/>
      <point x="1746" y="1289" type="line"/>
    </contour>
    <contour>
      <point x="734" y="555" type="curve" smooth="yes"/>
      <point x="828" y="776"/>
      <point x="968" y="920"/>
      <point x="1213" y="920" type="curve" smooth="yes"/>
      <point x="1501" y="920"/>
      <point x="1638" y="717"/>
      <point x="1638" y="485" type="curve" smooth="yes"/>
      <point x="1638" y="234"/>
      <point x="1479" y="66"/>
      <point x="1218" y="66" type="curve" smooth="yes"/>
      <point x="1033" y="66"/>
      <point x="893" y="136"/>
      <point x="736" y="264" type="curve"/>
      <point x="830" y="459" type="line"/>
      <point x="941" y="352"/>
      <point x="1058" y="300"/>
      <point x="1173" y="300" type="curve" smooth="yes"/>
      <point x="1302" y="300"/>
      <point x="1386" y="382"/>
      <point x="1386" y="514" type="curve" smooth="yes"/>
      <point x="1386" y="616"/>
      <point x="1322" y="680"/>
      <point x="1231" y="680" type="curve" smooth="yes"/>
      <point x="1146" y="680"/>
      <point x="1055" y="610"/>
      <point x="998" y="476" type="curve" smooth="yes"/>
      <point x="895" y="237"/>
      <point x="745" y="70"/>
      <point x="503" y="70" type="curve" smooth="yes"/>
      <point x="229" y="70"/>
      <point x="73" y="249"/>
      <point x="73" y="500" type="curve" smooth="yes"/>
      <point x="73" y="729"/>
      <point x="237" y="914"/>
      <point x="497" y="914" type="curve" smooth="yes"/>
      <point x="673" y="914"/>
      <point x="820" y="851"/>
      <point x="960" y="731" type="curve"/>
      <point x="877" y="551" type="line"/>
      <point x="757" y="640"/>
      <point x="647" y="679"/>
      <point x="546" y="679" type="curve" smooth="yes"/>
      <point x="413" y="679"/>
      <point x="334" y="586"/>
      <point x="334" y="468" type="curve" smooth="yes"/>
      <point x="334" y="361"/>
      <point x="394" y="303"/>
      <point x="478" y="303" type="curve" smooth="yes"/>
      <point x="572" y="303"/>
      <point x="659" y="377"/>
    </contour>
  </outline>
</glyph>
<glyph name="namadeva" format="1">
  <advance width="1951"/>
  <outline>
    <contour>
      <point x="862" y="682" type="line"/>
      <point x="862" y="447" type="line"/>
      <point x="392" y="447" type="line"/>
      <point x="442" y="498" type="line"/>
      <point x="442" y="256" type="line"/>
      <point x="442" y="180"/>
      <point x="404" y="136"/>
      <point x="347" y="136" type="curve" smooth="yes"/>
      <point x="307" y="136"/>
      <point x="266" y="156"/>
      <point x="219" y="203" type="curve" smooth="yes"/>
      <point x="156" y="266"/>
      <point x="83" y="412"/>
      <point x="83" y="537" type="curve" smooth="yes"/>
      <point x="83" y="630"/>
      <point x="131" y="682"/>
      <point x="242" y="682" type="curve" smooth="yes"/>
    </contour>
    <contour>
      <point x="-30" y="1096" type="line"/>
      <point x="-30" y="1289" type="line"/>
      <point x="1173" y="1289" type="line"/>
      <point x="1173" y="1096" type="line"/>
    </contour>
    <component base="madeva" xOffset="608"/>
  </outline>
</glyph>
<glyph name="naprehalfdeva" format="1">
  <advance width="696"/>
  <outline>
    <contour>
      <point x="942" y="746" type="line"/>
      <point x="942" y="511" type="line"/>
      <point x="384" y="511" type="line"/>
      <point x="438" y="562" type="line"/>
      <point x="438" y="317" type="line"/>
      <point x="438" y="241"/>
      <point x="398" y="197"/>
      <point x="341" y="197" type="curve" smooth="yes"/>
      <point x="301" y="197"/>
      <point x="260" y="218"/>
      <point x="214" y="264" type="curve" smooth="yes"/>
      <point x="150" y="328"/>
      <point x="73" y="476"/>
      <point x="73" y="601" type="curve" smooth="yes"/>
      <point x="73" y="694"/>
      <point x="121" y="746"/>
      <point x="232" y="746" type="curve" smooth="yes"/>
    </contour>
    <contour>
      <point x="-30" y="1096" type="line"/>
      <point x="-30" y="1289" type="line"/>
      <point x="726" y="1289" type="line"/>
      <point x="726" y="1096" type="line"/>
    </contour>
  </outline>
</glyph>
<glyph name="naradeva" format="1">
  <advance width="1299"/>
  <outline>
    <contour>
      <point x="1020" y="315" type="line"/>
      <point x="328" y="-126" type="line"/>
      <point x="190" y="67" type="line"/>
      <point x="884" y="513" type="line"/>
    </contour>
    <contour>
      <point x="839" y="831" type="line"/>
      <point x="839" y="596" type="line"/>
      <point x="392" y="596" type="line"/>
      <point x="446" y="647" type="line"/>
      <point x="446" y="433" type="line"/>
      <point x="446" y="358"/>
      <point x="403" y="315"/>
      <point x="346" y="315" type="curve" smooth="yes"/>
      <point x="305" y="315"/>
      <point x="268" y="334"/>
      <point x="221" y="381" type="curve" smooth="yes"/>
      <point x="166" y="436"/>
      <point x="80" y="587"/>
      <point x="80" y="693" type="curve" smooth="yes"/>
      <point x="80" y="778"/>
      <point x="129" y="831"/>
      <point x="240" y="831" type="curve" smooth="yes"/>
    </contour>
    <contour>
      <point x="-30" y="1096" type="line"/>
      <point x="-30" y="1289" type="line"/>
      <point x="1329" y="1289" type="line"/>
      <point x="1329" y="1096" type="line"/>
    </contour>
    <contour>
      <point x="808" y="1132" type="line"/>
      <point x="1094" y="1132" type="line"/>
      <point x="1094" y="0" type="line"/>
      <point x="808" y="0" type="line"/>
    </contour>
    <contour>
      <point x="803" y="1289" type="move" name="top"/>
    </contour>
  </outline>
</glyph>
<glyph name="raradeva" format="1">
  <advance width="961"/>
  <outline>
    <component base="vattudeva" xOffset="884" yOffset="-12"/>
    <component base="radeva"/>
    <contour>
      <point x="392" y="-394" type="move" name="btm"/>
    </contour>
    <contour>
      <point x="524" y="1289" type="move" name="top"/>
    </contour>
  </outline>
</glyph>
<glyph name="rephanusvaradeva" format="1">
  <advance width="0"/>
  <outline>
    <contour>
      <point x="-135" y="1562" type="curve" smooth="yes"/>
      <point x="-54" y="1562"/>
      <point x="-17" y="1510"/>
      <point x="-17" y="1459" type="curve" smooth="yes"/>
      <point x="-17" y="1410"/>
      <point x="-54" y="1357"/>
      <point x="-135" y="1357" type="curve" smooth="yes"/>
      <point x="-211" y="1357"/>
      <point x="-251" y="1408"/>
      <point x="-251" y="1459" type="curve" smooth="yes"/>
      <point x="-251" y="1511"/>
      <point x="-211" y="1562"/>
    </contour>
    <contour>
      <point x="-486" y="1244" type="line"/>
      <point x="-540" y="1319"/>
      <point x="-582" y="1418"/>
      <point x="-582" y="1515" type="curve" smooth="yes"/>
      <point x="-582" y="1667"/>
      <point x="-452" y="1808"/>
      <point x="-214" y="1808" type="curve" smooth="yes"/>
      <point x="-151" y="1808"/>
      <point x="-102" y="1801"/>
      <point x="-51" y="1789" type="curve"/>
      <point x="-61" y="1637" type="line"/>
      <point x="-93" y="1642"/>
      <point x="-118" y="1644"/>
      <point x="-161" y="1644" type="curve" smooth="yes"/>
      <point x="-271" y="1644"/>
      <point x="-340" y="1565"/>
      <point x="-340" y="1465" type="curve" smooth="yes"/>
      <point x="-340" y="1394"/>
      <point x="-312" y="1328"/>
      <point x="-247" y="1244" type="curve"/>
    </contour>
    <contour>
      <point x="-493" y="1289" type="move" name="_top"/>
    </contour>
  </outline>
</glyph>
<glyph name="rrvocaliclowdeva" format="1">
  <advance width="0"/>
  <outline>
    <contour>
      <point x="-84" y="-614" type="line"/>
      <point x="-142" y="-634"/>
      <point x="-205" y="-647"/>
      <point x="-280" y="-647" type="curve" smooth="yes"/>
      <point x="-485" y="-647"/>
      <point x="-589" y="-566"/>
      <point x="-589" y="-457" type="curve" smooth="yes"/>
      <point x="-589" y="-345"/>
      <point x="-483" y="-260"/>
      <point x="-248" y="-260" type="curve"/>
      <point x="-216" y="-366" type="line"/>
      <point x="-339" y="-369"/>
      <point x="-381" y="-409"/>
      <point x="-381" y="-451" type="curve" smooth="yes"/>
      <point x="-381" y="-490"/>
      <point x="-346" y="-519"/>
      <point x="-264" y="-519" type="curve" smooth="yes"/>
      <point x="-217" y="-519"/>
      <point x="-171" y="-509"/>
      <point x="-115" y="-489" type="curve"/>
    </contour>
    <contour>
      <point x="-139" y="-363" type="line"/>
      <point x="-205" y="-380"/>
      <point x="-283" y="-390"/>
      <point x="-357" y="-390" type="curve" smooth="yes"/>
      <point x="-585" y="-390"/>
      <point x="-703" y="-285"/>
      <point x="-703" y="-167" type="curve" smooth="yes"/>
      <point x="-703" y="-58"/>
      <point x="-604" y="41"/>
      <point x="-357" y="41" type="curve" smooth="yes"/>
      <point x="-300" y="41"/>
      <point x="-239" y="35"/>
      <point x="-205" y="30" type="curve"/>
      <point x="-205" y="-97" type="line"/>
      <point x="-238" y="-97"/>
      <point x="-284" y="-97"/>
      <point x="-320" y="-97" type="curve" smooth="yes"/>
      <point x="-428" y="-97"/>
      <point x="-470" y="-133"/>
      <point x="-470" y="-178" type="curve" smooth="yes"/>
      <point x="-470" y="-221"/>
      <point x="-429" y="-250"/>
      <point x="-338" y="-250" type="curve" smooth="yes"/>
      <point x="-274" y="-250"/>
      <point x="-224" y="-242"/>
      <point x="-166" y="-227" type="curve"/>
    </contour>
    <contour>
      <point x="-420" y="0" type="move" name="_btm"/>
    </contour>
  </outline>
</glyph>
<glyph name="rvocalicvowelsignlowdeva" format="1">
  <advance width="0"/>
  <outline>
    <contour>
      <point x="-126" y="-456" type="line"/>
      <point x="-195" y="-479"/>
      <point x="-268" y="-492"/>
      <point x="-359" y="-492" type="curve" smooth="yes"/>
      <point x="-576" y="-492"/>
      <point x="-738" y="-389"/>
      <point x="-738" y="-215" type="curve" smooth="yes"/>
      <point x="-738" y="-68"/>
      <point x="-595" y="41"/>
      <point x="-371" y="41" type="curve" smooth="yes"/>
      <point x="-306" y="41"/>
      <point x="-253" y="36"/>
      <point x="-205" y="30" type="curve"/>
      <point x="-205" y="-118" type="line"/>
      <point x="-238" y="-118"/>
      <point x="-288" y="-118"/>
      <point x="-324" y="-118" type="curve" smooth="yes"/>
      <point x="-448" y="-118"/>
      <point x="-504" y="-168"/>
      <point x="-504" y="-230" type="curve" smooth="yes"/>
      <point x="-504" y="-283"/>
      <point x="-450" y="-328"/>
      <point x="-357" y="-328" type="curve" smooth="yes"/>
      <point x="-292" y="-328"/>
      <point x="-237" y="-321"/>
      <point x="-159" y="-298" type="curve"/>
    </contour>
    <contour>
      <point x="-420" y="0" type="move" name="_btm"/>
    </contour>
  </outline>
</glyph>
<glyph name="ssatthadeva" format="1">
  <advance width="1293"/>
  <outline>
    <contour>
      <point x="1323" y="1096" type="line"/>
      <point x="-30" y="1096" type="line"/>
      <point x="-30" y="1289" type="line"/>
      <point x="1323" y="1289" type="line"/>
    </contour>
    <contour>
      <point x="841" y="801" type="curve" smooth="yes"/>
      <point x="841" y="1132" type="line"/>
      <point x="1121" y="1132" type="line"/>
      <point x="1121" y="786" type="line"/>
      <point x="1121" y="554"/>
      <point x="973" y="389"/>
      <point x="654" y="389" type="curve" smooth="yes"/>
      <point x="353" y="389"/>
      <point x="142" y="546"/>
      <point x="142" y="833" type="curve" smooth="yes"/>
      <point x="142" y="1187" type="line"/>
      <point x="422" y="1187" type="line"/>
      <point x="422" y="767" type="line"/>
      <point x="422" y="664"/>
      <point x="523" y="614"/>
      <point x="613" y="614" type="curve" smooth="yes"/>
      <point x="768" y="614"/>
      <point x="841" y="672"/>
    </contour>
    <contour>
      <point x="910" y="229" type="curve" smooth="yes"/>
      <point x="910" y="297"/>
      <point x="871" y="358"/>
      <point x="804" y="390" type="curve"/>
      <point x="652" y="390" type="line"/>
      <point x="457" y="390"/>
      <point x="391" y="299"/>
      <point x="391" y="207" type="curve" smooth="yes"/>
      <point x="391" y="118"/>
      <point x="469" y="39"/>
      <point x="642" y="39" type="curve" smooth="yes"/>
      <point x="827" y="39"/>
      <point x="910" y="128"/>
    </contour>
    <contour>
      <point x="851" y="600" type="line"/>
      <point x="1075" y="519"/>
      <point x="1175" y="364"/>
      <point x="1175" y="197" type="curve" smooth="yes"/>
      <point x="1175" y="1"/>
      <point x="1004" y="-170"/>
      <point x="675" y="-171" type="curve" smooth="yes"/>
      <point x="306" y="-171"/>
      <point x="120" y="28"/>
      <point x="120" y="243" type="curve" smooth="yes"/>
      <point x="120" y="443"/>
      <point x="274" y="600"/>
      <point x="560" y="600" type="curve" smooth="yes"/>
    </contour>
    <contour>
      <point x="908" y="618" type="line"/>
      <point x="787" y="531" type="line"/>
      <point x="363" y="1096" type="line"/>
      <point x="484" y="1183" type="line"/>
    </contour>
    <contour>
      <point x="514.0" y="-166.0" type="move" name="btm"/>
    </contour>
    <contour>
      <point x="841.0" y="1289.0" type="move" name="top"/>
    </contour>
  </outline>
</glyph>
<glyph name="tanadeva" format="1">
  <advance width="1983"/>
  <outline>
    <contour>
      <point x="1019" y="831" type="line"/>
      <point x="1017" y="596" type="line"/>
      <point x="603" y="596" type="line"/>
      <point x="437" y="596"/>
      <point x="372" y="524"/>
      <point x="372" y="416" type="curve" smooth="yes"/>
      <point x="372" y="331"/>
      <point x="413" y="229"/>
      <point x="527" y="45" type="curve"/>
      <point x="296" y="-26" type="line"/>
      <point x="161" y="181"/>
      <point x="102" y="350"/>
      <point x="102" y="485" type="curve" smooth="yes"/>
      <point x="102" y="686"/>
      <point x="231" y="831"/>
      <point x="547" y="831" type="curve" smooth="yes"/>
    </contour>
    <contour>
      <point x="-30" y="1096" type="line"/>
      <point x="-30" y="1289" type="line"/>
      <point x="771" y="1289" type="line"/>
      <point x="771" y="1096" type="line"/>
    </contour>
    <component base="nadeva" xOffset="696"/>
  </outline>
</glyph>
<glyph name="taprehalfdeva" format="1">
  <advance width="723"/>
  <outline>
    <contour>
      <point x="1013" y="860" type="line"/>
      <point x="1010" y="621" type="line"/>
      <point x="621" y="621" type="line"/>
      <point x="431" y="621"/>
      <point x="373" y="537"/>
      <point x="373" y="424" type="curve" smooth="yes"/>
      <point x="373" y="336"/>
      <point x="416" y="221"/>
      <point x="525" y="45" type="curve"/>
      <point x="288" y="-26" type="line"/>
      <point x="161" y="173"/>
      <point x="102" y="345"/>
      <point x="102" y="495" type="curve" smooth="yes"/>
      <point x="102" y="705"/>
      <point x="240" y="860"/>
      <point x="551" y="860" type="curve" smooth="yes"/>
    </contour>
    <contour>
      <point x="-30" y="1096" type="line"/>
      <point x="-30" y="1289" type="line"/>
      <point x="753" y="1289" type="line"/>
      <point x="753" y="1096" type="line"/>
    </contour>
  </outline>
</glyph>
<glyph name="taraprehalfdeva" format="1">
  <advance width="724"/>
  <outline>
    <contour>
      <point x="-30" y="1096" type="line"/>
      <point x="-30" y="1289" type="line"/>
      <point x="754" y="1289" type="line"/>
      <point x="754" y="1096" type="line"/>
    </contour>
    <contour>
      <point x="745" y="766" type="curve" smooth="yes"/>
      <point x="953" y="627" type="line"/>
      <point x="990" y="449" type="line"/>
      <point x="275" y="95" type="line"/>
      <point x="150" y="314" type="line"/>
      <point x="737" y="593" type="line"/>
      <point x="781" y="485" type="line"/>
      <point x="642" y="579" type="line"/>
      <point x="533" y="652"/>
      <point x="436" y="687"/>
      <point x="351" y="687" type="curve" smooth="yes"/>
      <point x="271" y="687"/>
      <point x="187" y="654"/>
      <point x="115" y="613" type="curve"/>
      <point x="45" y="860" type="line"/>
      <point x="122" y="898"/>
      <point x="226" y="927"/>
      <point x="316" y="927" type="curve" smooth="yes"/>
      <point x="450" y="927"/>
      <point x="569" y="883"/>
    </contour>
  </outline>
</glyph>
<glyph name="uuvowelsignlowdeva" format="1">
  <advance width="0"/>
  <outline>
    <contour>
      <point x="-123" y="-527" type="line"/>
      <point x="-206" y="-556"/>
      <point x="-275" y="-566"/>
      <point x="-371" y="-566" type="curve" smooth="yes"/>
      <point x="-588" y="-567"/>
      <point x="-764" y="-453"/>
      <point x="-764" y="-254" type="curve" smooth="yes"/>
      <point x="-764" y="-105"/>
      <point x="-629" y="31"/>
      <point x="-394" y="31" type="curve" smooth="yes"/>
      <point x="-147" y="31"/>
      <point x="56" y="-95"/>
      <point x="288" y="-351" type="curve"/>
      <point x="152" y="-496" type="line"/>
      <point x="-80" y="-245"/>
      <point x="-221" y="-182"/>
      <point x="-361" y="-182" type="curve" smooth="yes"/>
      <point x="-467" y="-182"/>
      <point x="-519" y="-233"/>
      <point x="-519" y="-294" type="curve" smooth="yes"/>
      <point x="-519" y="-349"/>
      <point x="-470" y="-388"/>
      <point x="-379" y="-388" type="curve" smooth="yes"/>
      <point x="-320" y="-388"/>
      <point x="-270" y="-380"/>
      <point x="-189" y="-351" type="curve"/>
    </contour>
    <contour>
      <point x="-420" y="0" type="move" name="_btm"/>
    </contour>
  </outline>
</glyph>
<glyph name="vaprehalfdeva" format="1">
  <advance width="705"/>
  <outline>
    <contour>
      <point x="735" y="1096" type="line"/>
      <point x="-30" y="1096" type="line"/>
      <point x="-30" y="1289" type="line"/>
      <point x="735" y="1289" type="line"/>
    </contour>
    <contour>
      <point x="757" y="581" type="curve" smooth="yes"/>
      <point x="757" y="661"/>
      <point x="667" y="737"/>
      <point x="541" y="737" type="curve" smooth="yes"/>
      <point x="409" y="737"/>
      <point x="341" y="667"/>
      <point x="341" y="574" type="curve" smooth="yes"/>
      <point x="341" y="481"/>
      <point x="412" y="410"/>
      <point x="522" y="410" type="curve" smooth="yes"/>
      <point x="654" y="410"/>
      <point x="757" y="491"/>
    </contour>
    <contour>
      <point x="1003" y="569" type="curve" smooth="yes"/>
      <point x="1003" y="369"/>
      <point x="816" y="188"/>
      <point x="546" y="188" type="curve" smooth="yes"/>
      <point x="255" y="188"/>
      <point x="76" y="393"/>
      <point x="76" y="613" type="curve" smooth="yes"/>
      <point x="76" y="804"/>
      <point x="221" y="948"/>
      <point x="484" y="948" type="curve" smooth="yes"/>
      <point x="821" y="948"/>
      <point x="1003" y="759"/>
    </contour>
  </outline>
</glyph>
<glyph name="vattulowdeva" format="1">
  <advance width="0"/>
  <outline>
    <contour>
      <point x="-286" y="57" type="line"/>
      <point x="156" y="-188" type="line"/>
      <point x="31" y="-364" type="line"/>
      <point x="-399" y="-121" type="line"/>
      <point x="-288" y="-121" type="line"/>
      <point x="-721" y="-367" type="line"/>
      <point x="-855" y="-182" type="line"/>
      <point x="-421" y="57" type="line"/>
    </contour>
    <contour>
      <point x="-493" y="0" type="move" name="_btm"/>
    </contour>
  </outline>
</glyph>
<glyph name="vatturrvocalicdeva" format="1">
  <advance width="0"/>
  <outline>
    <component base="vattudeva" yOffset="-5"/>
    <component base="rrvocaliclowdeva" xOffset="77" yOffset="-422"/>
    <contour>
      <point x="-493" y="0" type="move" name="_btm"/>
    </contour>
  </outline>
</glyph>
<glyph name="vattuviramalowdeva" format="1">
  <advance width="-1"/>
  <outline>
    <component base="viramalowdeva" xOffset="18" yOffset="-264"/>
    <component base="vattulowdeva"/>
    <contour>
      <point x="-493" y="0" type="move" name="_btm"/>
    </contour>
  </outline>
</glyph>
